<svg id="svga-svgcanvas" xmlns="http://www.w3.org/2000/svg" version="1.1" xmlns:xlink="http://www.w3.org/1999/xlink" xmlns:svgjs="http://svgjs.com/svgjs" class="svga-svg" viewBox="0 0 200 200" preserveAspectRatio="xMinYMin meet"><defs id="SvgjsDefs1007"><radialGradient id="SvgjsRadialGradient2904" cx="100" cy="114" r="41" gradientUnits="userSpaceOnUse" class="svga-on-canvas-facehighlight-gradient-single-0"><stop id="SvgjsStop2905" stop-opacity="0.5" stop-color="#fff4f3" offset="0" data-stoptype="hl1"></stop><stop id="SvgjsStop2906" stop-opacity="0" stop-color="#f3d4cf" offset="0.9" data-stoptype="tone"></stop></radialGradient><radialGradient id="SvgjsRadialGradient2908" cx="100" cy="54" r="37" gradientUnits="userSpaceOnUse" class="svga-on-canvas-facehighlight-gradient-single-1"><stop id="SvgjsStop2909" stop-opacity="0.5" stop-color="#fff4f3" offset="0" data-stoptype="hl1"></stop><stop id="SvgjsStop2910" stop-opacity="0" stop-color="#f3d4cf" offset="0.9" data-stoptype="tone"></stop></radialGradient><linearGradient id="SvgjsLinearGradient3033" x1="100" y1="142" x2="100" y2="139" gradientUnits="userSpaceOnUse" class="svga-on-canvas-mouth-gradient-single-0"><stop id="SvgjsStop3034" stop-opacity="1" stop-color="#ebc3bd" offset="0.1" data-stoptype="sd05"></stop><stop id="SvgjsStop3035" stop-opacity="1" stop-color="#e4b3ab" offset="1" data-stoptype="sd1"></stop></linearGradient><radialGradient id="SvgjsRadialGradient3739" cx="125.379" cy="82.93" r="12.84" gradientTransform="matrix(-1.0592 4.000000e-004 -4.000000e-004 0.9318 206.5112 5.1767)" gradientUnits="userSpaceOnUse" class="svga-on-canvas-eyesback-gradient-left-0"><stop id="SvgjsStop3740" stop-opacity="1" stop-color="#ffffff" offset="0" data-stoptype="#ffffff"></stop><stop id="SvgjsStop3741" stop-opacity="1" stop-color="#fdfefe" offset="0.544" data-stoptype="#fdfefe"></stop><stop id="SvgjsStop3742" stop-opacity="1" stop-color="#f6f8f9" offset="0.74" data-stoptype="#f6f8f9"></stop><stop id="SvgjsStop3743" stop-opacity="1" stop-color="#eaeff2" offset="0.879" data-stoptype="#eaeff2"></stop><stop id="SvgjsStop3744" stop-opacity="1" stop-color="#d9e3e8" offset="0.992" data-stoptype="#d9e3e8"></stop><stop id="SvgjsStop3745" stop-opacity="1" stop-color="#d8e2e7" offset="1" data-stoptype="#d8e2e7"></stop></radialGradient><radialGradient id="SvgjsRadialGradient3747" cx="125.001" cy="82.93" r="12.841" gradientTransform="matrix(1.0592 4.000000e-004 4.000000e-004 0.9318 -6.5112 5.1767)" gradientUnits="userSpaceOnUse" class="svga-on-canvas-eyesback-gradient-right-0"><stop id="SvgjsStop3748" stop-opacity="1" stop-color="#ffffff" offset="0" data-stoptype="#ffffff"></stop><stop id="SvgjsStop3749" stop-opacity="1" stop-color="#fdfefe" offset="0.544" data-stoptype="#fdfefe"></stop><stop id="SvgjsStop3750" stop-opacity="1" stop-color="#f6f8f9" offset="0.74" data-stoptype="#f6f8f9"></stop><stop id="SvgjsStop3751" stop-opacity="1" stop-color="#eaeff2" offset="0.879" data-stoptype="#eaeff2"></stop><stop id="SvgjsStop3752" stop-opacity="1" stop-color="#d9e3e8" offset="0.992" data-stoptype="#d9e3e8"></stop><stop id="SvgjsStop3753" stop-opacity="1" stop-color="#d8e2e7" offset="1" data-stoptype="#d8e2e7"></stop></radialGradient><radialGradient id="SvgjsRadialGradient3755" cx="125.379" cy="82.93" r="12.84" gradientTransform="matrix(-1.0592 4.000000e-004 -4.000000e-004 0.9318 206.5112 5.1767)" gradientUnits="userSpaceOnUse" class="svga-on-canvas-eyesfront-gradient-left-0"><stop id="SvgjsStop3756" stop-opacity="1" stop-color="#ffffff" offset="0" data-stoptype="#ffffff"></stop><stop id="SvgjsStop3757" stop-opacity="1" stop-color="#fdfefe" offset="0.544" data-stoptype="#fdfefe"></stop><stop id="SvgjsStop3758" stop-opacity="1" stop-color="#f6f8f9" offset="0.74" data-stoptype="#f6f8f9"></stop><stop id="SvgjsStop3759" stop-opacity="1" stop-color="#eaeff2" offset="0.879" data-stoptype="#eaeff2"></stop><stop id="SvgjsStop3760" stop-opacity="1" stop-color="#d9e3e8" offset="0.992" data-stoptype="#d9e3e8"></stop><stop id="SvgjsStop3761" stop-opacity="1" stop-color="#d8e2e7" offset="1" data-stoptype="#d8e2e7"></stop></radialGradient><radialGradient id="SvgjsRadialGradient3765" cx="123.218" cy="81.096" fx="133.802" fy="77.197" r="17.898" gradientTransform="matrix(0.9998 0.0183 0.0166 -0.7038 -47.7588 136.6255)" gradientUnits="userSpaceOnUse" class="svga-on-canvas-eyesfront-gradient-left-3"><stop id="SvgjsStop3766" stop-opacity="1" stop-color="#e4b3ab" offset="0" data-stoptype="sd1"></stop><stop id="SvgjsStop3767" stop-opacity="0.3" stop-color="#e4b3ab" offset="0.7" data-stoptype="sd1"></stop><stop id="SvgjsStop3768" stop-opacity="0" stop-color="#f3d4cf" offset="1" data-stoptype="tone"></stop></radialGradient><radialGradient id="SvgjsRadialGradient3770" cx="79.496" cy="81.496" r="23.208" gradientTransform="matrix(1.0971 -0.0499 0.0576 0.9543 -20.1632 27.912)" gradientUnits="userSpaceOnUse" class="svga-on-canvas-eyesfront-gradient-left-4"><stop id="SvgjsStop3771" stop-opacity="0" stop-color="#000000" offset="0.9" data-stoptype="#000000"></stop><stop id="SvgjsStop3772" stop-opacity="0.2" stop-color="#000000" offset="1" data-stoptype="#000000"></stop></radialGradient><radialGradient id="SvgjsRadialGradient3776" cx="125.001" cy="82.93" r="12.841" gradientTransform="matrix(1.0592 4.000000e-004 4.000000e-004 0.9318 -6.5112 5.1767)" gradientUnits="userSpaceOnUse" class="svga-on-canvas-eyesfront-gradient-right-0"><stop id="SvgjsStop3777" stop-opacity="1" stop-color="#ffffff" offset="0" data-stoptype="#ffffff"></stop><stop id="SvgjsStop3778" stop-opacity="1" stop-color="#fdfefe" offset="0.544" data-stoptype="#fdfefe"></stop><stop id="SvgjsStop3779" stop-opacity="1" stop-color="#f6f8f9" offset="0.74" data-stoptype="#f6f8f9"></stop><stop id="SvgjsStop3780" stop-opacity="1" stop-color="#eaeff2" offset="0.879" data-stoptype="#eaeff2"></stop><stop id="SvgjsStop3781" stop-opacity="1" stop-color="#d9e3e8" offset="0.992" data-stoptype="#d9e3e8"></stop><stop id="SvgjsStop3782" stop-opacity="1" stop-color="#d8e2e7" offset="1" data-stoptype="#d8e2e7"></stop></radialGradient><radialGradient id="SvgjsRadialGradient3786" cx="122.818" cy="81.096" fx="133.402" fy="77.197" r="17.898" gradientTransform="matrix(-0.9998 0.0183 -0.0166 -0.7038 246.9601 136.6328)" gradientUnits="userSpaceOnUse" class="svga-on-canvas-eyesfront-gradient-right-3"><stop id="SvgjsStop3787" stop-opacity="1" stop-color="#e4b3ab" offset="0" data-stoptype="sd1"></stop><stop id="SvgjsStop3788" stop-opacity="0.3" stop-color="#e4b3ab" offset="0.7" data-stoptype="sd1"></stop><stop id="SvgjsStop3789" stop-opacity="0" stop-color="#f3d4cf" offset="1" data-stoptype="tone"></stop></radialGradient><radialGradient id="SvgjsRadialGradient3791" cx="79.859" cy="81.511" r="23.208" gradientTransform="matrix(-1.0971 -0.0499 -0.0576 0.9543 220.163 27.9157)" gradientUnits="userSpaceOnUse" class="svga-on-canvas-eyesfront-gradient-right-4"><stop id="SvgjsStop3792" stop-opacity="0" stop-color="#000000" offset="0.9" data-stoptype="#000000"></stop><stop id="SvgjsStop3793" stop-opacity="0.2" stop-color="#000000" offset="1" data-stoptype="#000000"></stop></radialGradient><radialGradient id="SvgjsRadialGradient3798" cx="-568.659" cy="-521.042" r="59.751" gradientTransform="matrix(0.096 -0.0248 0.0245 0.0961 141.2814 119.9893)" gradientUnits="userSpaceOnUse" class="svga-on-canvas-eyesiris-gradient-left-1"><stop id="SvgjsStop3799" stop-opacity="1" stop-color="#ffffff" offset="0" data-stoptype="#ffffff"></stop><stop id="SvgjsStop3800" stop-opacity="0" stop-color="#ffffff" offset="1" data-stoptype="#ffffff"></stop></radialGradient><radialGradient id="SvgjsRadialGradient3802" cx="-582.838" cy="-519.099" r="59.745" gradientTransform="matrix(0.0991 8.856319e-004 -0.0011 0.0991 131.1134 135.9855)" gradientUnits="userSpaceOnUse" class="svga-on-canvas-eyesiris-gradient-left-2"><stop id="SvgjsStop3803" stop-opacity="1" stop-color="#ffffff" offset="0" data-stoptype="#ffffff"></stop><stop id="SvgjsStop3804" stop-opacity="0" stop-color="#ffffff" offset="1" data-stoptype="#ffffff"></stop></radialGradient><linearGradient id="SvgjsLinearGradient3808" x1="122.67" y1="88.268" x2="123.606" y2="87.152" gradientTransform="matrix(1 0 0 1 -52 0)" gradientUnits="userSpaceOnUse" class="svga-on-canvas-eyesiris-gradient-left-5"><stop id="SvgjsStop3809" stop-opacity="1" stop-color="#ffffff" offset="0" data-stoptype="#ffffff"></stop><stop id="SvgjsStop3810" stop-opacity="0" stop-color="#ffffff" offset="1" data-stoptype="#ffffff"></stop></linearGradient><linearGradient id="SvgjsLinearGradient3812" x1="127.212" y1="82.296" x2="126.463" y2="83.189" gradientTransform="matrix(1 0 0 1 -52 0)" gradientUnits="userSpaceOnUse" class="svga-on-canvas-eyesiris-gradient-left-6"><stop id="SvgjsStop3813" stop-opacity="1" stop-color="#ffffff" offset="0" data-stoptype="#ffffff"></stop><stop id="SvgjsStop3814" stop-opacity="0" stop-color="#ffffff" offset="1" data-stoptype="#ffffff"></stop></linearGradient><linearGradient id="SvgjsLinearGradient3816" x1="129.636" y1="79.822" x2="127.91" y2="81.879" gradientTransform="matrix(1 0 0 1 -52 0)" gradientUnits="userSpaceOnUse" class="svga-on-canvas-eyesiris-gradient-left-7"><stop id="SvgjsStop3817" stop-opacity="1" stop-color="#ffffff" offset="0" data-stoptype="#ffffff"></stop><stop id="SvgjsStop3818" stop-opacity="0" stop-color="#ffffff" offset="1" data-stoptype="#ffffff"></stop></linearGradient><radialGradient id="SvgjsRadialGradient3821" cx="-568.654" cy="-521.042" r="59.752" gradientTransform="matrix(0.096 -0.0248 0.0245 0.0961 193.2804 119.9894)" gradientUnits="userSpaceOnUse" class="svga-on-canvas-eyesiris-gradient-right-1"><stop id="SvgjsStop3822" stop-opacity="1" stop-color="#ffffff" offset="0" data-stoptype="#ffffff"></stop><stop id="SvgjsStop3823" stop-opacity="0" stop-color="#ffffff" offset="1" data-stoptype="#ffffff"></stop></radialGradient><radialGradient id="SvgjsRadialGradient3825" cx="-582.833" cy="-519.102" r="59.747" gradientTransform="matrix(0.0991 8.856319e-004 -0.0011 0.0991 183.1126 135.9856)" gradientUnits="userSpaceOnUse" class="svga-on-canvas-eyesiris-gradient-right-2"><stop id="SvgjsStop3826" stop-opacity="1" stop-color="#ffffff" offset="0" data-stoptype="#ffffff"></stop><stop id="SvgjsStop3827" stop-opacity="0" stop-color="#ffffff" offset="1" data-stoptype="#ffffff"></stop></radialGradient><linearGradient id="SvgjsLinearGradient3831" x1="122.67" y1="88.268" x2="123.606" y2="87.152" gradientUnits="userSpaceOnUse" class="svga-on-canvas-eyesiris-gradient-right-5"><stop id="SvgjsStop3832" stop-opacity="1" stop-color="#ffffff" offset="0" data-stoptype="#ffffff"></stop><stop id="SvgjsStop3833" stop-opacity="0" stop-color="#ffffff" offset="1" data-stoptype="#ffffff"></stop></linearGradient><linearGradient id="SvgjsLinearGradient3835" x1="127.212" y1="82.296" x2="126.463" y2="83.189" gradientUnits="userSpaceOnUse" class="svga-on-canvas-eyesiris-gradient-right-6"><stop id="SvgjsStop3836" stop-opacity="1" stop-color="#ffffff" offset="0" data-stoptype="#ffffff"></stop><stop id="SvgjsStop3837" stop-opacity="0" stop-color="#ffffff" offset="1" data-stoptype="#ffffff"></stop></linearGradient><linearGradient id="SvgjsLinearGradient3839" x1="129.636" y1="79.822" x2="127.91" y2="81.879" gradientUnits="userSpaceOnUse" class="svga-on-canvas-eyesiris-gradient-right-7"><stop id="SvgjsStop3840" stop-opacity="1" stop-color="#ffffff" offset="0" data-stoptype="#ffffff"></stop><stop id="SvgjsStop3841" stop-opacity="0" stop-color="#ffffff" offset="1" data-stoptype="#ffffff"></stop></linearGradient><linearGradient id="SvgjsLinearGradient3927" x1="100" y1="172" x2="100" y2="122" gradientUnits="userSpaceOnUse" class="svga-on-canvas-chinshadow-gradient-single-0"><stop id="SvgjsStop3928" stop-opacity="0.8" stop-color="#e4b3ab" offset="0" data-stoptype="sd1"></stop><stop id="SvgjsStop3929" stop-opacity="1" stop-color="#c5796d" offset="0.7" data-stoptype="sd3"></stop></linearGradient></defs><g id="svga-group-wrapper"><g id="svga-group-backs-single"></g><g id="svga-group-humanwrap-move" data-updown="0" data-leftright="0" data-rotate="0" transform="matrix(1,0,0,1,0,0)"><g id="svga-group-humanwrap" data-scaleX="1" data-scaleY="1" transform="matrix(1,0,0,1,0,0)"><g id="svga-group-hair-back-move" data-updown="0" data-leftright="0" data-rotate="0" transform="matrix(1,0,0,1,0,0)"><g id="svga-group-hair-back" data-scaleX="1" data-scaleY="1" transform="matrix(1,0,0,1,0,0)"><path id="SvgjsPath3967" d="M100.5,100.5h-1v-1h1V100.5z" data-colored="true" data-fillType="tone" data-strokeType="none" fill="#6b4e40" stroke-width="none" opacity="1"></path></g></g><g id="svga-group-humanbody-single"><path id="SvgjsPath2911" d="M195.417 199.778c-2.196-4.746-8.195-11.779-14.86-13.722 -8.239-2.403-26.837-5.308-33.733-6.923 -5.528-1.296-16.662-11.294-20.564-14.65 -0.7-0.6-1.273-1.839-1.287-2.76 -0.139-10.864 4.195-39.724 4.195-39.724H100 70.833c0 0 4.334 28.859 4.193 39.724 -0.011 0.921-0.587 2.16-1.285 2.76 -3.902 3.356-15.036 13.354-20.564 14.65 -6.897 1.615-25.495 4.619-33.733 7.022 -6.667 1.942-12.664 8.876-14.86 13.622 -3.708 8.008-4.584 22.5-4.584 35h100 100C200 222.278 199.123 207.786 195.417 199.778z" data-colored="true" data-fillType="tone" data-strokeType="none" data-fromskin="true" fill="#f3d4cf" stroke-width="none" opacity="1" stroke="none"></path><path id="SvgjsPath2912" d="M159.156 184.058c24.342 3.542 34.586 8.708 37.794 50.721H200c0-12.5-0.877-26.992-4.583-35 -2.196-4.746-8.195-11.779-14.86-13.722 -8.239-2.403-26.837-5.308-33.733-6.923 -5.528-1.296-18.242-12.069-21.643-16.35 3.36 4.704 12.791 15.605 21.054 18.46C150.188 182.61 153.48 183.232 159.156 184.058zM53.766 181.244c8.263-2.854 17.693-13.756 21.054-18.46 -3.4 4.28-16.114 15.054-21.643 16.35 -6.896 1.615-25.494 4.619-33.733 7.022 -6.665 1.942-12.664 8.876-14.86 13.622 -3.706 8.008-4.583 22.5-4.583 35h3.05c3.188-41.744 13.475-47.183 37.794-50.721C46.52 183.232 49.813 182.61 53.766 181.244z" data-colored="true" data-fillType="hl1" data-strokeType="none" data-fromskin="true" fill="#fff4f3" stroke-width="none" opacity="1" stroke="none"></path><path id="SvgjsPath2913" d="M95.646 197.62c0 0-5.074-1.609-7.083-2.379 -10.449-4.009-44.395-6.607-44.395-6.607s35.754 1.419 43.644 2.779c-0.458-4.767-3.017-20.004-3.017-20.004s5.149 16.815 6.409 21.057C91.878 194.734 95.646 197.62 95.646 197.62zM106.445 196.278c-0.089 0.073-0.191 0.168-0.302 0.268C106.256 196.461 106.358 196.372 106.445 196.278zM95.646 197.62c0 0 2.893 2.992 4.347 3.03 1.91 0.051 4.828-2.899 6.151-4.104 -1.265 0.957-4.159 1.391-5.31 1.436C99.504 198.033 95.646 197.62 95.646 197.62zM116.664 190.101c-1.545 0.248-4.386 0.789-4.386 0.789l2.287-14.89c-0.646 3.071-4.474 16.211-8.12 20.278 1.91-1.616 6.158-2.391 8.324-2.704 10.236-1.484 10.232-1.483 41.062-4.94C155.831 188.634 126.76 188.479 116.664 190.101z" data-colored="true" data-fillType="sd1" data-strokeType="none" data-fromskin="true" fill="#e4b3ab" stroke-width="none" opacity="1" stroke="none"></path><path id="SvgjsPath2914" d="M195.417 199.778c-2.196-4.746-8.195-11.779-14.86-13.722 -8.239-2.403-26.837-5.308-33.733-6.923 -5.528-1.296-16.662-11.294-20.564-14.65 -0.7-0.6-1.273-1.839-1.287-2.76 -0.139-10.864 4.195-39.724 4.195-39.724H100 70.833c0 0 4.334 28.859 4.193 39.724 -0.011 0.921-0.587 2.16-1.285 2.76 -3.902 3.356-15.036 13.354-20.564 14.65 -6.897 1.615-25.495 4.619-33.733 7.022 -6.667 1.942-12.664 8.876-14.86 13.622 -3.708 8.008-4.584 22.5-4.584 35h100 100C200 222.278 199.123 207.786 195.417 199.778z" data-colored="true" data-fillType="none" data-strokeType="sd3" data-fromskin="true" fill="none" stroke="#c5796d" stroke-width="1.5" opacity="1"></path></g><g id="svga-group-chinshadow-single"><path id="SvgjsPath3926" d="M75.517 163.052c6.979 4.54 16.307 8.814 24.485 8.814 7.828 0 17.345-4.309 24.458-8.869 -0.145-0.428-0.233-0.862-0.239-1.264 -0.126-9.877 3.345-34.021 4.076-38.983H71.703c0.73 4.963 4.202 29.106 4.074 38.982C75.772 162.146 75.676 162.603 75.517 163.052z" data-colored="false" data-fillType="gradient" data-strokeType="none" data-fromskin="true" fill="url(#SvgjsLinearGradient3927)" opacity="1"></path></g><g id="svga-group-clothes-single"><path id="SvgjsPath3955" d="M128.857 237.978H70.72v-56.183c22.25 4.699 36.88 4.337 58.138 0V237.978z" data-colored="false" data-fillType="#f3f1f3" data-strokeType="none" fill="#f3f1f3" stroke-width="none" opacity="1"></path><path id="SvgjsPath3956" d="M107.44 237.709c-2.775 0-10.727 0.208-16.512-0.23l-0.01-0.171c-0.818-18.658 1.129-30.719 4.537-39.288l0.048-0.123 -0.093-0.093c-0.905-0.904-2.425-1.935-4.034-3.025 -1.611-1.093-3.275-2.221-4.336-3.246 0.625-0.732 1.395-1.454 2.348-2.201 0.245-0.125 1.162-0.843 5.974-4.971 0.214-0.184 0.345-0.296 0.362-0.31 0.818-0.178 2.138-0.293 3.738-0.293 2.183 0 4.731 0.221 6.512 0.563 1.561 1.458 3.451 5.329 4.158 7.17 -0.976 2.291-2.128 3.129-3.717 4.284 -0.774 0.563-1.652 1.201-2.652 2.112l-0.083 0.075 0.021 0.111c4.026 20.31 4.027 25.054 4.027 29.642 0.001 2.021 0.001 6.609 0.339 9.985C107.917 237.707 107.704 237.709 107.44 237.709z" data-colored="false" data-fillType="#131111" data-strokeType="none" fill="#131111" stroke-width="none" opacity="1"></path><path id="SvgjsPath3957" d="M110.35 191.495c-0.754-1.995-2.71-5.93-4.28-7.359 -2.876-0.563-7.983-0.843-10.47-0.24 -0.108 0.088-6.248 5.383-6.31 5.26 -0.906 0.708-1.788 1.504-2.52 2.39 2.061 2.076 6.655 4.556 8.5 6.4 -3.65 9.18-5.33 21.59-4.55 39.38 0.01 0.11 0.01 0.23 0.02 0.34 6.756 0.52 16.55 0.331 17.55 0.223 -1.16-11.307 1.438-10.455-4.39-39.853C106.968 195.241 108.865 195.04 110.35 191.495zM105.1 210.535c-0.021-0.05-0.04-0.1-0.051-0.13 2 10.55 1.38 18.632 2.891 26.972 -4.736-0.318-12.014-0.052-16.771-0.052 0.369-7.198 1.188-31.684 4.74-39.74 0.17-0.046 0.339-0.084 0.509-0.125l-1.032 34.736 2.747-35.066c0.02-0.002 0.04-0.005 0.06-0.008l1.801 32.605 0.417-32.734c0.026 0.001 0.051-0.001 0.077 0l4.199 36.355 -2.3-36.137c0.314 0.063 0.629 0.141 0.942 0.233 0.03 0 0.07 0.01 0.1 0.03C103.533 198.476 104.365 205.876 105.1 210.535zM104.219 196.726c-2.774-1.251-6.363-1.026-9.129 0.24 -1.681-1.813-4.08-3.077-7.53-5.391 0.55-0.479 1.26-1.07 2.21-1.81 0.08 0 3.48-2.771 3.54-2.83 0.92-0.84 1.74-1.79 2.52-2.62 2.93-0.12 7.23 0.02 9.82 0.14 1.5 1.876 2.931 4.696 4.01 6.94C107.699 194.266 105.759 195.545 104.219 196.726z" data-colored="false" data-fillType="#000000" data-strokeType="none" fill="#000000" stroke-width="none" opacity="1"></path><path id="SvgjsPath3958" d="M78.196 213.077c-11.534-40.071-6.325-29.581-9.399-45.32 2.028-4.813 3.958-10.44 5.042-11.598l0.08-0.086c2.292 24.007 8.958 13.636 23.784 27.722C89.228 189.449 81.372 204.127 78.196 213.077zM131.193 167.758c-1.448-3.702-4.077-9.127-5.215-10.331 1.424 20.678-15.146 16.551-24.35 26.2 8.812 5.713 17.173 20.66 20.172 29.455C134.92 169.568 127.85 188.673 131.193 167.758z" data-colored="false" data-fillType="#f3f1f4" data-strokeType="none" fill="#f3f1f4" stroke-width="none" opacity="1"></path><path id="SvgjsPath3959" d="M125.801 156.967c0 5.137-0.42 9.162-1.262 10.339 -2.443 5.809-13.103 9.853-16.39 11.51 -2.495 1.227-4.942 2.809-6.83 4.85 3.813 2.476 5.705 3.383 12.93 14.44 4.246 7.109 6.539 12.448 7.561 15.64 13.378-44.331 6.222-24.978 9.59-46.01C129.814 163.65 126.801 157.885 125.801 156.967zM129.449 176.495c-1.957 18.078-3.491 14.485-7.74 34.181 -2.716-8.644-11.075-22.913-19.43-27.091 3.937-2.957 5.031-3.131 9.729-5.279 14.396-6.42 14.985-12.385 14.138-20.271 1.207 1.423 3.125 6.161 4.692 9.521C129.979 170.702 129.589 175.194 129.449 176.495zM79.199 171.896c-4.408-3.649-3.16-8.162-5.189-16.215 -0.902 1-3.146 6.632-5.42 12.055 0.557 2.796 0.681 7.389 0.76 8.84 0.559 12.202 1.75 12.765 8.83 37.16 3.031-8.905 11.558-24.37 20.24-30.009C91.489 177.401 82.765 174.999 79.199 171.896zM84.659 197.405c-2.221 3.666-4.517 7.48-6.37 13.28 -4.442-20.269-5.999-16.964-7.73-34.16 -0.32-2.971-0.617-6.027-1.4-8.96 1.638-3.588 3.981-10.281 4.731-10.995 1.366 7.078 0.066 13.462 5.669 16.995 2.621 1.996 11.104 5.32 17.52 10.36C93.188 186.235 91.094 187.596 84.659 197.405z" data-colored="false" data-fillType="#cfc8d7" data-strokeType="none" fill="#cfc8d7" stroke-width="none" opacity="1"></path><path id="SvgjsPath3960" d="M120.319 209.824l-1.209-2.654c0 0 9.148-28.175 10.743-36.225C130.765 179.299 120.319 209.824 120.319 209.824zM78.879 208.721l1.436-3.259c0 0-8.573-26.467-10.168-34.517C69.235 179.299 78.879 208.721 78.879 208.721z" data-colored="false" data-fillType="#e1e0e1" data-strokeType="none" fill="#e1e0e1" stroke-width="none" opacity="1"></path><path id="SvgjsPath3961" d="M124.787 195.605c7.065-20.834 2.756-22.551 6.305-29.469 0.134-0.261 1.396 1.046 1.533 1.64 1.306 5.658 53.349 17.338 54.994 18.598 1.456 1.058 5.65 3.137 5.65 3.137 4.937 9.07 7.762 10.698 9.15 34.984 0.13 3.083-0.061 11.801-0.061 14.141l-85.559-0.676C117.004 230.169 117.999 216.15 124.787 195.605zM75.213 195.605c-7.065-20.834-2.756-22.551-6.305-29.469 -0.134-0.261-1.396 1.046-1.533 1.64 -1.306 5.658-53.349 17.338-54.994 18.598 -1.456 1.058-5.65 3.137-5.65 3.137 -4.937 9.07-7.762 10.698-9.15 34.984 -0.13 3.083 0.061 11.801 0.061 14.141l85.559-0.676C82.996 230.169 82.001 216.15 75.213 195.605z" data-colored="true" data-fillType="tone" data-strokeType="none" fill="#386e77" stroke-width="none" opacity="1"></path><path id="SvgjsPath3962" d="M130.307 190c-4.552 16.387-10.771 31.116-13.506 47.96 -0.89-0.007 1.491-22.695 7.986-42.354 7.065-20.834 2.756-22.551 6.305-29.469 0.077-0.15-0.619 1.976-0.223 2.432C130.723 176.296 132.625 182.272 130.307 190zM69.693 190c4.552 16.387 10.771 31.116 13.506 47.96 0.89-0.007-1.491-22.695-7.986-42.354 -7.065-20.834-2.756-22.551-6.305-29.469 -0.077-0.15 0.619 1.976 0.223 2.432C69.277 176.296 67.375 182.272 69.693 190z" data-colored="true" data-fillType="sd1" data-strokeType="none" fill="#265e68" stroke-width="none" opacity="1"></path><path id="SvgjsPath3963" d="M152.436 186.031c0 0-2.284 2.561-8.636 6.923 5.313-5.885 7.761-8.249 7.761-8.249L152.436 186.031zM154.611 197.906l-1.528-1.367c-4.538 13.781-7.571 20.587-12.828 36.618C147.799 218.831 149.599 213.745 154.611 197.906zM48.439 184.705c0 0 2.447 2.364 7.761 8.249 -6.352-4.362-8.636-6.923-8.636-6.923L48.439 184.705zM59.745 233.157c-5.257-16.031-8.29-22.837-12.828-36.618l-1.528 1.367C50.401 213.745 52.201 218.831 59.745 233.157z" data-colored="true" data-fillType="sd2" data-strokeType="none" fill="#184f58" stroke-width="none" opacity="1"></path><path id="SvgjsPath3964" d="M179.409 219.335c0-11.596 3.11-18.351 9.615-28.142 0.608 0.372 0.931 0.543 1.345 0.875C183.452 200.651 182.078 208.659 179.409 219.335zM141.312 230.703c6.113-16.703 8.06-23.228 12.107-34.388 -1.15-0.351-8.671-2.985-9.819-3.346 0.41 1 3.113 1.822 7.822 4.709C151.422 197.679 146.333 213.082 141.312 230.703zM149.533 184.577c0 0-3.352 4.14-6.664 8.328 3.388-2.67 5.748-5.644 8.691-8.2 -3.994-3.368-10.511-8.524-14.721-12.089C140.163 176.188 149.533 184.577 149.533 184.577zM202.073 238.634l0.286 0.002c0-2.34 0.19-11.058 0.061-14.141 -1.389-24.286-4.214-25.914-9.15-34.984 0 0-4.194-2.079-5.65-3.137 -1.334-1.021-38.794-9.922-52.49-15.88 16.011 10.971 46.282 15.027 55.24 21.574C194.702 195.235 200.535 222.337 202.073 238.634zM9.613 192.037c0.542-0.383 0.619-0.366 1.168-0.729 6.505 9.791 9.809 16.431 9.809 28.026C17.922 208.659 16.08 200.318 9.613 192.037zM48.578 197.679c4.709-2.887 7.412-3.709 7.822-4.709 -1.148 0.36-8.669 2.995-9.819 3.346 4.048 11.16 5.994 17.685 12.107 34.388C53.667 213.082 48.578 197.679 48.578 197.679zM63.16 172.616c-4.21 3.564-10.727 8.721-14.721 12.089 2.943 2.557 5.304 5.53 8.691 8.2 -3.313-4.188-6.664-8.328-6.664-8.328S59.837 176.188 63.16 172.616zM9.631 192.068c8.958-6.547 39.229-10.604 55.24-21.574 -13.696 5.958-51.156 14.858-52.49 15.88 -1.456 1.058-5.65 3.137-5.65 3.137 -4.937 9.07-7.762 10.698-9.15 34.984 -0.13 3.083 0.061 11.801 0.061 14.141l0.286-0.002C-0.535 222.337 5.298 195.235 9.631 192.068z" data-colored="true" data-fillType="hl1" data-strokeType="none" fill="#4d7e86" stroke-width="none" opacity="1"></path><path id="SvgjsPath3965" d="M132.246 166.374c-0.049-0.293-0.443-0.634-0.738-0.657 -0.296-0.023-0.432 0.458-0.567 0.722 -3.549 6.918 0.414 8.333-6.651 29.167 -6.788 20.545-7.584 34.862-7.787 42.653l85.857 0.377c0-2.34 0.489-11.058 0.359-14.141 -1.389-24.286-4.313-26.113-9.25-35.184 0 0-4.394-2.179-5.85-3.236 -4.889-3.742-0.59 0.023-22.03-6 -17.576-5.135-18.525-6.577-24.899-8.35 -1.288-0.369-4.057-0.822-6.95-2.851C133.475 168.689 132.341 166.944 132.246 166.374zM116.974 237.31c3.729-23.564 6.085-29.73 11.296-47.274 3.522-11.104 1.576-17.408 3.254-22.54 0.088-0.268 0.467-0.282 0.571-0.017 2.434 6.214 9.238 7.656 18.834 17.047 -5.813 5.813-7.309 7.38-8.06 8.38 0.864 0.438 5.582 2.229 9.9 3.9 -0.245 0.767-13.415 38.02-13.57 38.52 10-21.578 11.292-28.211 14.22-39.01 -0.812-0.612-7.892-3.212-9.09-3.64 4.274-4.424 5.51-5.396 7.53-7.971 1.622 0-15.874-13.318-16.73-14.211 0.462 0.364 2.752 1.391 3.01 1.491 14.682 5.166 3.065 2.829 35.2 12.001 3.072 0.781 7.355 1.567 10.53 1.879 0.218 0.02 5.395 2.727 8.35 3.97 -7.189 7.475-11.797 17.133-12.81 29.5 3.219-12.666 4.951-19.29 13.14-28.819 7.62 15.422 6.755 13.195 9.23 47.71C181.167 237.413 149.559 237.227 116.974 237.31zM66.261 168.875c-2.894 2.028-5.662 2.481-6.95 2.851 -6.374 1.772-7.323 3.215-24.899 8.35 -21.44 6.023-17.142 2.258-22.03 6 -1.456 1.058-5.85 3.236-5.85 3.236 -4.937 9.07-7.861 10.897-9.25 35.184 -0.13 3.083 0.359 11.801 0.359 14.141l85.857-0.377c-0.203-7.791-0.999-22.108-7.787-42.653 -7.065-20.834-3.103-22.249-6.651-29.167 -0.136-0.264-0.271-0.745-0.567-0.722 -0.295 0.023-0.689 0.364-0.738 0.657C67.659 166.944 66.525 168.689 66.261 168.875zM-1.779 238.226c2.476-34.515 1.61-32.288 9.23-47.71 8.188 9.529 9.921 16.153 13.14 28.819 -1.013-12.367-5.62-22.025-12.81-29.5 2.955-1.243 8.132-3.95 8.35-3.97 3.175-0.312 7.458-1.098 10.53-1.879 32.135-9.172 20.519-6.835 35.2-12.001 0.258-0.101 2.548-1.127 3.01-1.491 -0.856 0.893-18.353 14.211-16.73 14.211 2.021 2.575 3.256 3.547 7.53 7.971 -1.198 0.428-8.278 3.027-9.09 3.64 2.928 10.799 4.22 17.432 14.22 39.01 -0.155-0.5-13.325-37.753-13.57-38.52 4.318-1.672 9.036-3.463 9.9-3.9 -0.751-1-2.247-2.567-8.06-8.38 9.596-9.391 16.4-10.833 18.834-17.047 0.104-0.266 0.483-0.251 0.571 0.017 1.678 5.132-0.269 11.436 3.254 22.54 5.211 17.544 7.567 23.71 11.296 47.274C50.441 237.227 18.833 237.413-1.779 238.226z" data-colored="true" data-fillType="sd3" data-strokeType="none" fill="#0c4049" stroke-width="none" opacity="1"></path></g><g id="svga-group-head" data-updown="0" data-leftright="0" data-rotate="0" transform="matrix(1,0,0,1,0,0)"><g id="svga-group-ears-left-move" data-updown="0" data-leftright="0" data-rotate="0" transform="matrix(1,0,0,1,0,0)"><g id="svga-group-ears-left" data-scaleX="1" data-scaleY="1" transform="matrix(1,0,0,1,0,0)"><path id="SvgjsPath2924" d="M45.671 84.344c-1.485-2.462-6.327-9.199-10.031-8.254 -3.012 0.772-2.973 4.971-3.206 7.455 -0.34 3.644-0.464 9.992 0.525 12.568 0.951 2.473 3.96 7.252 5.828 9.075 2.299 2.235 5.97 9.358 6.422 10.097 0.711 1.168 2.137 2.84 4.325 2.708 3.071-0.185 5.724-3.087 5.965-4.485C56.8 105.918 49.536 90.75 45.671 84.344z" data-colored="true" data-fillType="tone" data-strokeType="sd3" fill="#f3d4cf" stroke="#c5796d" stroke-width="1.5" opacity="1"></path><path id="SvgjsPath2925" d="M44.2 99.341c-0.143-0.563 0.007-1.513 0.154-2.429 0.133-0.835 0.258-1.624 0.182-2.182 -0.289-2.09-1.915-6.06-2.976-8.212 -1.223-2.476-3.199-5.595-5.679-6.399 -1.024-0.333-1.699 0.065-2.089 0.468 -0.288 0.296-0.353 0.645-0.259 0.687 0.095 0.041 0.307-0.248 0.617-0.519 0.254-0.222-0.508-0.04 0 0 -0.205 1.04-0.865 6.302-0.41 10.143 0.358 3.022 1.05 5.279 1.263 5.617 0.031 0.356 0.083 0.705 0.16 1.043 1.002 4.41 7.518 10.177 9.034 11.82 0.28 0.303 0.574 0.483 0.646 0.409s-0.101-0.373-0.379-0.678c-1.498-1.632-7.971-7.381-8.939-11.635 -1.027-4.514 3.912-11.207 4.699-12.623 0.401 0.665 0.742 1.303 1.004 1.835 0.207 0.417 0.434 0.906 0.67 1.435 -0.463 0.738-5.118 6.127-3.934 10.441 0.438 1.591 3.822 3.642 5.131 4.203 0.72 0.31 0.99 0.772 1.304 1.306 0.364 0.624 0.033 2.229 1.23 2.739 0.244 0.104 0.464 0.146 0.659 0.146 0.338 0 0.594-0.13 0.783-0.284 0.02 0.271 0.019 0.619 0.009 0.941 -0.012 0.418 0.047 0.609 0.148 0.617 0.103 0.009 0.21-0.174 0.223-0.587 0.017-0.51 0.014-1.141-0.077-1.444 -0.269-0.889-1.088-1.894-1.957-2.957C44.563 102.197 44.422 100.213 44.2 99.341zM34.969 95.432c-2.348-6.923 1.283-13.229 1.81-14.179 1.012 0.399 2.562 2.193 3.221 3.235C39.52 85.321 35.067 90.775 34.969 95.432zM45.772 106.464c-1.084-0.462-0.706-1.984-1.056-2.584 -0.318-0.542-0.646-1.102-1.479-1.46 -0.18-0.078-0.379-0.196-0.583-0.332 -2.682-6.075 0.293-8.73 1.039-9.273 0.229 0.742 0.399 1.423 0.476 1.97 0.068 0.5-0.059 1.298-0.181 2.068 -0.153 0.955-0.31 1.944-0.147 2.584 0.244 0.953 0.411 2.97 1.291 4.048 0.781 0.956 1.583 1.942 1.857 2.746C46.871 106.391 46.5 106.775 45.772 106.464z" data-colored="true" data-fillType="sd3" data-strokeType="none" fill="#c5796d" stroke-width="none" opacity="1" stroke="none"></path></g></g><g id="svga-group-ears-right-move" data-updown="0" data-leftright="0" data-rotate="0" transform="matrix(1,0,0,1,0,0)"><g id="svga-group-ears-right" data-scaleX="1" data-scaleY="1" transform="matrix(1,0,0,1,0,0)"><path id="SvgjsPath2926" d="M154.066 84.344c1.486-2.462 6.328-9.199 10.031-8.254 3.012 0.772 2.973 4.971 3.207 7.455 0.34 3.644 0.463 9.992-0.525 12.568 -0.951 2.473-3.961 7.252-5.828 9.075 -2.299 2.235-5.971 9.358-6.422 10.097 -0.711 1.168-2.137 2.84-4.326 2.708 -3.07-0.185-5.723-3.087-5.965-4.485C142.938 105.918 150.203 90.75 154.066 84.344z" data-colored="true" data-fillType="tone" data-strokeType="sd3" fill="#f3d4cf" stroke="#c5796d" stroke-width="1.5" opacity="1"></path><path id="SvgjsPath2927" d="M154.322 103.243c-0.869 1.063-1.688 2.068-1.957 2.957 -0.092 0.304-0.094 0.935-0.078 1.444 0.014 0.413 0.121 0.596 0.225 0.587 0.102-0.008 0.16-0.199 0.148-0.617 -0.01-0.322-0.012-0.67 0.008-0.941 0.189 0.154 0.445 0.284 0.783 0.284 0.195 0 0.416-0.042 0.66-0.146 1.195-0.511 0.865-2.116 1.229-2.739 0.314-0.534 0.584-0.997 1.305-1.306 1.309-0.561 4.693-2.611 5.131-4.203 1.184-4.314-3.471-9.704-3.934-10.441 0.234-0.529 0.463-1.018 0.668-1.435 0.264-0.532 0.604-1.171 1.006-1.835 0.787 1.416 5.725 8.108 4.699 12.623 -0.969 4.254-7.441 10.003-8.939 11.635 -0.279 0.305-0.453 0.604-0.381 0.678 0.074 0.074 0.367-0.106 0.646-0.409 1.516-1.643 8.031-7.41 9.033-11.82 0.078-0.338 0.131-0.687 0.162-1.043 0.211-0.337 0.904-2.594 1.262-5.617 0.455-3.841-0.205-9.103-0.41-10.143 0.508-0.04-0.254-0.222 0 0 0.311 0.271 0.523 0.56 0.617 0.519 0.094-0.042 0.029-0.39-0.258-0.687 -0.391-0.403-1.066-0.801-2.09-0.468 -2.48 0.804-4.457 3.923-5.68 6.399 -1.061 2.152-2.686 6.122-2.975 8.212 -0.076 0.558 0.049 1.347 0.182 2.182 0.146 0.916 0.297 1.866 0.154 2.429C155.316 100.213 155.176 102.197 154.322 103.243zM159.738 84.488c0.66-1.042 2.209-2.835 3.221-3.235 0.527 0.95 4.158 7.256 1.811 14.179C164.672 90.775 160.219 85.321 159.738 84.488zM152.75 106.229c0.273-0.804 1.076-1.79 1.857-2.746 0.879-1.078 1.047-3.095 1.291-4.048 0.162-0.64 0.006-1.629-0.146-2.584 -0.123-0.77-0.25-1.568-0.182-2.068 0.076-0.547 0.246-1.228 0.475-1.97 0.746 0.543 3.721 3.199 1.039 9.273 -0.203 0.136-0.402 0.254-0.584 0.332 -0.832 0.358-1.16 0.918-1.479 1.46 -0.35 0.6 0.029 2.123-1.055 2.584C153.238 106.775 152.867 106.391 152.75 106.229z" data-colored="true" data-fillType="sd3" data-strokeType="none" fill="#c5796d" stroke-width="none" opacity="1" stroke="none"></path></g></g><g id="svga-group-faceshape-wrap" data-scaleX="1" data-scaleY="1" transform="matrix(1,0,0,1,0,0)"><g id="svga-group-faceshape-single"><path id="SvgjsPath3923" d="M100.002 0.867C66.384 0.92 39.082 28.536 39.134 62.56c0.009 5.403 0.704 10.643 2.002 15.634h0.001c0.012 0.054 8.341 20.48 10.463 33.205 2.38 14.276 10.462 30.232 16.302 35.786 6.052 5.756 20.281 14.682 32.099 14.682 11.267 0 26.046-8.926 32.099-14.682 5.84-5.554 13.922-21.51 16.302-35.786 2.122-12.725 10.452-33.151 10.463-33.205h0.002c1.298-4.992 1.994-10.231 2.002-15.634C160.923 28.536 133.62 0.92 100.002 0.867z" data-colored="true" data-fillType="tone" data-strokeType="none" fill="#f3d4cf" stroke-width="none" opacity="1"></path><path id="SvgjsPath3924" d="M136.901 13.53c12.866 11.318 21.063 28.416 21.036 47.539 -0.009 5.403-0.671 10.642-1.906 15.634h-0.001c-0.011 0.054-7.939 20.48-9.959 33.205 -2.267 14.277-9.959 30.233-15.517 35.786 -5.761 5.757-19.828 14.683-30.552 14.683 -11.249 0-24.792-8.926-30.552-14.683 -5.558-5.553-13.25-21.509-15.516-35.786 -2.02-12.724-9.948-33.15-9.959-33.205h-0.001c-1.236-4.992-1.898-10.231-1.906-15.634 -0.028-19.122 8.168-36.218 21.033-47.537C48.519 24.809 39.104 42.574 39.134 62.56c0.009 5.403 0.704 10.643 2.002 15.634h0.001c0.012 0.054 8.341 20.48 10.463 33.205 2.38 14.276 10.462 30.232 16.302 35.786 6.052 5.756 20.281 14.682 32.099 14.682 11.267 0 26.046-8.926 32.099-14.682 5.84-5.554 13.922-21.51 16.302-35.786 2.122-12.725 10.452-33.151 10.463-33.205h0.002c1.298-4.992 1.994-10.231 2.002-15.634C160.901 42.573 151.485 24.806 136.901 13.53z" data-colored="true" data-fillType="sd05" data-strokeType="none" fill="#ebc3bd" stroke-width="none" opacity="1"></path><path id="SvgjsPath3925" d="M100.002 0.867C66.384 0.92 39.082 28.536 39.134 62.56c0.009 5.403 0.704 10.643 2.002 15.634h0.001c0.012 0.054 8.341 20.48 10.463 33.205 2.38 14.276 10.462 30.232 16.302 35.786 6.052 5.756 20.281 14.682 32.099 14.682 11.267 0 26.046-8.926 32.099-14.682 5.84-5.554 13.922-21.51 16.302-35.786 2.122-12.725 10.452-33.151 10.463-33.205h0.002c1.298-4.992 1.994-10.231 2.002-15.634C160.923 28.536 133.62 0.92 100.002 0.867z" data-colored="true" data-fillType="none" data-strokeType="sd3" fill="none" stroke="#c5796d" stroke-width="1.5" opacity="1"></path></g></g><g id="svga-group-mouth-single-move" data-updown="0" data-leftright="0" data-rotate="0" transform="matrix(1,0,0,1,0,0)"><g id="svga-group-mouth-single" data-scaleX="1" data-scaleY="1" transform="matrix(1,0,0,1,0,0)"><path id="SvgjsPath3032" d="M96.227 139.237l8.297-0.207C103.563 143.5 96.884 142.858 96.227 139.237z" data-colored="false" data-fillType="gradient" data-strokeType="none" data-fromskin="true" fill="url(#SvgjsLinearGradient3033)" opacity="1"></path><path id="SvgjsPath3036" d="M96.343 139.52c-0.371-0.05-0.315-0.579 0.08-0.542 0.043 0.006 4.308 0.546 7.878-0.215 0.386-0.075 0.5 0.455 0.13 0.534C101.634 139.895 98.015 139.755 96.343 139.52zM100.083 135.95c-1.503 0-2.96-0.521-4.424-0.776 -1.64-0.287-3.274-0.041-4.915 0.104 -1.676 0.149-5.333-0.013-6.365-0.666 -0.578-0.367-0.47-1.221 0.181-1.449 0.614-0.22 1.571 0.236 2.191 0.347 2.872 0.515 4.384-0.034 6.902-0.118 3.851-0.116 4.26 1.501 9.064 0.53 5.165-1.044 7.491-0.254 11.197-1.37 0.508-0.154 1.112-0.56 1.645-0.286 0.615 0.318 0.585 1.185-0.049 1.464 -3.406 1.502-7.174 0.895-10.955 1.526C103.073 135.502 101.596 135.95 100.083 135.95z" data-colored="true" data-fillType="sd3" data-strokeType="none" data-fromskin="true" fill="#c5796d" stroke-width="none" opacity="1" stroke="none"></path></g></g><g id="svga-group-eyes-left-move" data-updown="0" data-leftright="0" data-rotate="0" transform="matrix(1,0,0,1,0,0)"><g id="svga-group-eyes-left" data-scaleX="1" data-scaleY="1" transform="matrix(1,0,0,1,0,0)"><g id="svga-group-eyesback-left"><path id="SvgjsPath3738" d="M83.071 89.125c-3.293-0.784-4.969 1.059-9.809 1.166 -8.057 0.177-9.938-0.618-11.199-2.638 -0.523-0.837-1.023-1.928-1.264-2.601l-0.1-4.149c1.328-3.949 19.541-4.352 25.9 1.784 0.287 0.666 0.433 1.287 0.465 1.867 -0.19 0.958-0.512 1.878-0.947 2.749C85.411 88.113 84.355 88.729 83.071 89.125z" data-colored="false" data-fillType="gradient" data-strokeType="none" fill="url(#SvgjsRadialGradient3739)" opacity="1"></path></g><g id="svga-group-eyesiriswrapper-left" transform="matrix(1,0,0,1,0.25,0.25)"><g id="svga-group-eyesiriscontrol-left" data-updown="0" data-leftright="0" data-rotate="0" transform="matrix(1,0,0,1,0,0)"><g id="svga-group-eyesiris-left" data-scaleX="1" data-scaleY="1" transform="matrix(1,0,0,1,0,0)"><path id="SvgjsPath3932" d="M80 84c0 3.313-2.687 5.999-6 5.999S68 87.313 68 84c0-3.316 2.687-6.001 6-6.001S80 80.685 80 84z" data-colored="true" data-fillType="tone" data-strokeType="none" fill="#4e60a3" stroke-width="none" opacity="1" stroke="none"></path><path id="SvgjsPath3933" d="M70.512 86.805c0.875-0.072 0.1-0.306 0.1-0.306 -0.433-0.233-1.248-0.592-1.248-0.921 0-1.031 1.414-1.299-0.034-1.705 -1.504-1.38 1.167-1.352 1.147-1.398 -0.975-2.376 0.299-1.071 0.835-1.773 1.988-2.599 0.554 0.267 1.633 0 0.391-0.096-0.78-1.531 0.034-1.33 0.539 0.132 0.662 0.58 0.662 0.58 0.393-0.077 1.008-0.682 1.008-0.682 0.749 0.226 1.275 1.29 1.043 1.091 0.368-0.045 0.884-0.221 1.286-0.341 0 0 0.07-0.239 0.139-0.033 0.917 2.661 3.284 2.47 0.559 3.24 0 0-0.176 0 0.382 0.442 2.71 2.164-2.102 1.495 0.451 2.49 0.104-0.104-1.53 0.965-1.53 1.261 0 0.501-1.042 1.818-1.946 1.3 -0.504-0.288-0.581 0.6-0.877 0.19 -0.581-0.803-1.742-0.035-1.313-0.773 0.634-0.521-0.654 0.204-0.904 0.204 -0.828 0 1.083-2.783 3.894-0.715 0.822 0.602-0.864-1.433 0.625-1.433 0.149 0.049 0.104-0.521 0.104-0.682 -0.774-0.151 1.39-0.003 1.39-1.262 0.137 0.027 0.509-0.35-1.635 0 0 0-0.068-0.75-0.034-0.886 0.11-0.438 1.214-0.298 0.904-0.75 0-0.001-0.799-1.604-0.799-1.604 -2.573-0.414-1.102-0.672-2.711-0.341 -0.076 0.378-3.445 1.984-3.338 2.729 0.1 0.702 2.115 0.938 0.208 2.182C73.405 91.051 68.437 85.454 70.512 86.805z" data-colored="true" data-fillType="hl1" data-strokeType="none" fill="#6777b2" stroke-width="none" opacity="1" stroke="none"></path><path id="SvgjsPath3934" d="M74 78.749l0.171 4.393 1.837-3.993 -1.523 4.123 3.227-2.985 -2.985 3.226 4.124-1.523 -3.992 1.839 4.392 0.17 -4.392 0.17 3.992 1.839 -4.124-1.523 2.985 3.226 -3.227-2.985 1.523 4.123 -1.837-3.993L74 89.249l-0.171-4.393 -1.838 3.993 1.522-4.123 -3.226 2.985 2.985-3.226 -4.124 1.523 3.992-1.839 -4.39-0.17 4.39-0.17 -3.992-1.839 4.124 1.523 -2.985-3.226 3.226 2.985 -1.522-4.123 1.838 3.993L74 78.749z" data-colored="true" data-fillType="sd2" data-strokeType="none" fill="#253984" stroke-width="none" opacity="1" stroke="none"></path><path id="SvgjsPath3935" d="M74.796 80.067l-0.539 3.315 1.981-2.711 -1.766 2.857 2.87-1.748 -2.725 1.964 3.319-0.515L74.668 84l3.266 0.794 -3.317-0.538 2.712 1.982 -2.858-1.765 1.748 2.869 -1.964-2.725 0.516 3.319 -0.771-3.27 -0.795 3.264 0.539-3.315 -1.984 2.711 1.768-2.857 -2.869 1.748 2.725-1.964 -3.319 0.516 3.269-0.771 -3.264-0.793 3.315 0.537 -2.712-1.982 2.858 1.765 -1.747-2.869 1.964 2.725 -0.516-3.318 0.772 3.27L74.796 80.067z" data-colored="true" data-fillType="sd3" data-strokeType="none" fill="#152975" stroke-width="none" opacity="1" stroke="none"></path><path id="SvgjsPath3936" d="M76.25 84c0 1.243-1.008 2.25-2.25 2.25s-2.25-1.007-2.25-2.25 1.008-2.25 2.25-2.25S76.25 82.757 76.25 84z" data-colored="false" data-fillType="#000000" data-strokeType="none" fill="#000000" stroke-width="none" opacity="0.9"></path><path id="SvgjsPath3937" d="M71.637 88.311c-0.331 0.332-0.985 0.215-1.46-0.261 -0.476-0.475-0.593-1.129-0.261-1.461 0.331-0.331 0.985-0.214 1.46 0.261C71.852 87.326 71.969 87.979 71.637 88.311z" data-colored="false" data-fillType="#ffffff" data-strokeType="none" fill="#ffffff" stroke-width="none" opacity="0.7"></path><path id="SvgjsPath3938" d="M78.806 82.818c-0.496 0.496-1.697 0.1-2.682-0.886 -0.986-0.986-1.382-2.187-0.886-2.683 0.496-0.496 1.697-0.1 2.682 0.886C78.906 81.122 79.302 82.322 78.806 82.818z" data-colored="false" data-fillType="#ffffff" data-strokeType="none" fill="#ffffff" stroke-width="none" opacity="0.9"></path></g></g></g><g id="svga-group-eyesfront-left"><path id="SvgjsPath3763" d="M53.729 84.098c-0.382 3.304 9.854 22.004 20.071 22.004s19.5-5.292 19.5-22.003c0-17.789-9.283-22.001-19.5-22.001S55.626 67.704 53.729 84.098zM60.8 85.053l-0.1-4.149c1.328-3.949 19.541-4.352 25.9 1.784 1.396 3.231-0.409 5.477-3.529 6.438 -3.293-0.784-4.969 1.059-9.809 1.166 -8.057 0.177-9.938-0.618-11.199-2.638C61.54 86.816 61.04 85.726 60.8 85.053z" data-colored="true" data-fillType="tone" data-strokeType="none" data-fromskin="true" fill="#f3d4cf" stroke-width="none" opacity="1" stroke="none"></path><path id="SvgjsPath3764" d="M59.698 82.412c0.023 7.534 7.646 13.604 17.038 13.566 9.389-0.043 16.985-6.179 16.961-13.713 -0.023-7.533-7.647-13.605-17.04-13.566C67.265 68.743 59.673 74.878 59.698 82.412zM60.8 85.053l-0.1-4.149c1.328-3.949 19.541-4.352 25.9 1.784 1.396 3.231-0.409 5.477-3.529 6.438 -3.293-0.784-4.969 1.059-9.809 1.166 -8.057 0.177-9.938-0.618-11.199-2.638C61.54 86.816 61.04 85.726 60.8 85.053z" data-colored="false" data-fillType="gradient" data-strokeType="none" data-fromskin="true" fill="url(#SvgjsRadialGradient3765)" opacity="1"></path><path id="SvgjsPath3769" d="M62.063 87.654c-0.523-0.837-1.023-1.928-1.264-2.601l-0.1-4.149c1.328-3.949 19.541-4.352 25.9 1.784 1.396 3.231-0.409 5.477-3.529 6.438 -3.293-0.784-4.969 1.059-9.809 1.166C65.206 90.469 63.324 89.673 62.063 87.654z" data-colored="false" data-fillType="gradient" data-strokeType="none" fill="url(#SvgjsRadialGradient3770)" opacity="1"></path><path id="SvgjsPath3773" d="M89.465 81.193c-9.617-5.761-16.701-6.128-28.117-5.394C70.877 74.298 81.852 75.387 89.465 81.193z" data-colored="true" data-fillType="sd3" data-strokeType="none" data-fromskin="true" fill="#c5796d" stroke-width="none" opacity="1" stroke="none"></path><path id="SvgjsPath3774" d="M88.23 85.283c-3.24-8.315-25.943-8.364-27.431-4.181v3.895c-1.021-1.539-1.047-1.633-1.483-3.404l-2.195 0.746c0 0 2.746-3.873 5.299-4.381C84.606 73.539 88.04 83.949 88.23 85.283zM84.743 89.42c-4.625-1.98-5.94 0.378-11.563 0.495 -8.004 0.168-9.567-0.766-11.125-2.476 0.813 2.091 1.375 3.085 10.875 3.027C78.306 90.433 81.243 88.212 84.743 89.42z" data-colored="true" data-fillType="tone" data-strokeType="none" fill="#000000" stroke-width="none" opacity="1" stroke="none"></path></g></g></g><g id="svga-group-eyes-right-move" data-updown="0" data-leftright="0" data-rotate="0" transform="matrix(1,0,0,1,0,0)"><g id="svga-group-eyes-right" data-scaleX="1" data-scaleY="1" transform="matrix(1,0,0,1,0,0)"><g id="svga-group-eyesback-right"><path id="SvgjsPath3746" d="M116.529 89.125c3.293-0.784 4.969 1.059 9.809 1.166 8.057 0.177 9.938-0.618 11.199-2.638 0.523-0.837 1.023-1.928 1.264-2.601l0.1-4.149c-1.328-3.949-19.541-4.352-25.9 1.784 -0.287 0.666-0.433 1.287-0.465 1.867 0.19 0.958 0.512 1.878 0.947 2.749C114.189 88.113 115.245 88.729 116.529 89.125z" data-colored="false" data-fillType="gradient" data-strokeType="none" fill="url(#SvgjsRadialGradient3747)" opacity="1"></path></g><g id="svga-group-eyesiriswrapper-right" transform="matrix(1,0,0,1,-0.25,0.25)"><g id="svga-group-eyesiriscontrol-right" data-updown="0" data-leftright="0" data-rotate="0" transform="matrix(1,0,0,1,0,0)"><g id="svga-group-eyesiris-right" data-scaleX="1" data-scaleY="1" transform="matrix(1,0,0,1,0,0)"><path id="SvgjsPath3939" d="M132,83.999c0,3.316-2.684,6-6,6s-6-2.684-6-6s2.684-6,6-6S132,80.683,132,83.999z" data-colored="true" data-fillType="tone" data-strokeType="none" fill="#4e60a3" stroke-width="none" opacity="1" stroke="none"></path><path id="SvgjsPath3940" d="M122.508 86.806c0.879-0.076 0.105-0.305 0.105-0.305 -0.434-0.234-1.254-0.592-1.254-0.926 0-1.031 1.418-1.295-0.023-1.705 -1.512-1.377 1.16-1.348 1.137-1.395 -0.973-2.379 0.305-1.072 0.844-1.775 1.98-2.596 0.551 0.27 1.629 0 0.387-0.094-0.785-1.529 0.035-1.33 0.539 0.135 0.656 0.58 0.656 0.58 0.398-0.076 1.008-0.68 1.008-0.68 0.75 0.223 1.277 1.289 1.043 1.09 0.375-0.047 0.891-0.223 1.289-0.34 0 0 0.07-0.24 0.141-0.035 0.914 2.66 3.281 2.473 0.563 3.24 0 0-0.176 0 0.375 0.439 2.707 2.168-2.098 1.494 0.457 2.49 0.105-0.1-1.535 0.967-1.535 1.266 0 0.498-1.043 1.816-1.945 1.295 -0.504-0.287-0.586 0.604-0.879 0.193 -0.574-0.803-1.746-0.035-1.313-0.773 0.633-0.521-0.656 0.205-0.902 0.205 -0.832 0 1.078-2.783 3.891-0.715 0.82 0.598-0.867-1.436 0.633-1.436 0.141 0.047 0.105-0.521 0.105-0.68 -0.785-0.152 1.383-0.006 1.383-1.266 0.141 0.029 0.516-0.346-1.629 0 0 0-0.07-0.75-0.035-0.885 0.105-0.439 1.207-0.299 0.902-0.75l-0.797-1.605c-2.578-0.41-1.102-0.668-2.719-0.34 -0.07 0.381-3.445 1.986-3.34 2.73 0.105 0.703 2.121 0.938 0.211 2.18C125.402 91.054 120.434 85.452 122.508 86.806z" data-colored="true" data-fillType="hl1" data-strokeType="none" fill="#6777b2" stroke-width="none" opacity="1" stroke="none"></path><path id="SvgjsPath3941" d="M126 78.749l0.176 4.395 1.828-3.996 -1.523 4.125 3.234-2.988 -2.988 3.229 4.125-1.523 -3.996 1.84 4.395 0.17 -4.395 0.17 3.996 1.84 -4.125-1.523 2.988 3.229 -3.234-2.988 1.523 4.125 -1.828-3.996L126 89.249l-0.176-4.395 -1.84 3.996 1.523-4.125 -3.223 2.988 2.988-3.229 -4.125 1.523 3.996-1.84 -4.395-0.17 4.395-0.17 -3.996-1.84 4.125 1.523 -2.988-3.229 3.223 2.988 -1.523-4.125 1.84 3.996L126 78.749z" data-colored="true" data-fillType="sd2" data-strokeType="none" fill="#253984" stroke-width="none" opacity="1" stroke="none"></path><path id="SvgjsPath3942" d="M126.797 80.067l-0.539 3.316 1.98-2.713 -1.77 2.859 2.871-1.752 -2.719 1.969 3.316-0.516 -3.27 0.768 3.27 0.797 -3.316-0.539 2.707 1.98 -2.859-1.764 1.746 2.871 -1.957-2.725 0.516 3.316L126 84.667l-0.797 3.264 0.539-3.316 -1.98 2.713 1.77-2.859 -2.871 1.752 2.719-1.969 -3.316 0.516 3.27-0.768 -3.27-0.797 3.316 0.539 -2.707-1.98 2.859 1.764 -1.746-2.871 1.957 2.725 -0.516-3.316 0.773 3.27L126.797 80.067z" data-colored="true" data-fillType="sd3" data-strokeType="none" fill="#152975" stroke-width="none" opacity="1" stroke="none"></path><path id="SvgjsPath3943" d="M128.25 83.999c0 1.242-1.008 2.25-2.25 2.25s-2.25-1.008-2.25-2.25 1.008-2.25 2.25-2.25S128.25 82.757 128.25 83.999z" data-colored="false" data-fillType="#000000" data-strokeType="none" fill="#000000" stroke-width="none" opacity="0.9"></path><path id="SvgjsPath3944" d="M123.633 88.312c-0.328 0.328-0.984 0.217-1.453-0.264 -0.48-0.475-0.598-1.125-0.258-1.459 0.328-0.328 0.984-0.211 1.453 0.264C123.855 87.327 123.973 87.978 123.633 88.312z" data-colored="false" data-fillType="#ffffff" data-strokeType="none" fill="#ffffff" stroke-width="none" opacity="0.7"></path><path id="SvgjsPath3945" d="M130.805 82.815c-0.492 0.498-1.699 0.105-2.684-0.885 -0.984-0.984-1.383-2.186-0.879-2.678 0.492-0.498 1.688-0.105 2.672 0.885C130.91 81.122 131.297 82.323 130.805 82.815z" data-colored="false" data-fillType="#ffffff" data-strokeType="none" fill="#ffffff" stroke-width="none" opacity="0.9"></path></g></g></g><g id="svga-group-eyesfront-right"><path id="SvgjsPath3784" d="M125.801 62.098c-10.217 0-19.5 4.212-19.5 22.001 0 16.711 9.283 22.003 19.5 22.003s19.891-18.032 20.07-22.004C146.617 67.611 136.018 62.098 125.801 62.098zM137.537 87.654c-1.261 2.02-3.143 2.815-11.199 2.638 -4.84-0.107-6.516-1.95-9.809-1.166 -3.12-0.961-4.925-3.207-3.529-6.438 6.359-6.136 24.572-5.733 25.9-1.784l-0.1 4.149C138.561 85.726 138.061 86.816 137.537 87.654z" data-colored="true" data-fillType="tone" data-strokeType="none" data-fromskin="true" fill="#f3d4cf" stroke-width="none" opacity="1" stroke="none"></path><path id="SvgjsPath3785" d="M122.943 68.699c-9.393-0.04-17.016 6.033-17.039 13.566 -0.025 7.535 7.572 13.67 16.961 13.713 9.391 0.037 17.014-6.033 17.037-13.566C139.928 74.878 132.336 68.743 122.943 68.699zM137.537 87.654c-1.261 2.02-3.143 2.815-11.199 2.638 -4.84-0.107-6.516-1.95-9.809-1.166 -3.12-0.961-4.925-3.207-3.529-6.438 6.359-6.136 24.572-5.733 25.9-1.784l-0.1 4.149C138.561 85.726 138.061 86.816 137.537 87.654z" data-colored="false" data-fillType="gradient" data-strokeType="none" data-fromskin="true" fill="url(#SvgjsRadialGradient3786)" opacity="1"></path><path id="SvgjsPath3790" d="M137.537 87.654c0.523-0.837 1.023-1.928 1.264-2.601l0.1-4.149c-1.328-3.949-19.541-4.352-25.9 1.784 -1.396 3.231 0.409 5.477 3.529 6.438 3.293-0.784 4.969 1.059 9.809 1.166C134.395 90.469 136.276 89.673 137.537 87.654z" data-colored="false" data-fillType="gradient" data-strokeType="none" fill="url(#SvgjsRadialGradient3791)" opacity="1"></path><path id="SvgjsPath3794" d="M110.136 81.193c9.617-5.761 16.701-6.128 28.117-5.394C128.724 74.298 117.749 75.387 110.136 81.193z" data-colored="true" data-fillType="sd3" data-strokeType="none" data-fromskin="true" fill="#c5796d" stroke-width="none" opacity="1" stroke="none"></path><path id="SvgjsPath3795" d="M137.181 77.957c2.553 0.508 5.299 4.381 5.299 4.381l-2.195-0.746c-0.437 1.771-0.463 1.865-1.483 3.404v-3.895c-1.487-4.183-24.19-4.134-27.431 4.181C111.561 83.949 114.994 73.539 137.181 77.957zM126.67 90.467c9.5 0.058 10.063-0.937 10.875-3.027 -1.558 1.71-3.121 2.644-11.125 2.476 -5.622-0.117-6.938-2.476-11.563-0.495C118.357 88.212 121.295 90.433 126.67 90.467z" data-colored="true" data-fillType="tone" data-strokeType="none" fill="#000000" stroke-width="none" opacity="1" stroke="none"></path></g></g></g><g id="svga-group-facehighlight-single"><path id="SvgjsPath2903" d="M141 113.974c0.035 22.622-18.292 40.994-40.938 41.025 -22.642 0.037-41.028-18.273-41.063-40.9 -0.035-22.62 18.292-41.064 40.937-41.1C122.579 72.964 140.967 91.349 141 113.974z" data-colored="false" data-fillType="gradient" data-strokeType="none" data-fromskin="true" fill="url(#SvgjsRadialGradient2904)" opacity="1"></path><path id="SvgjsPath2907" d="M137.5 53.999c0 20.711-16.789 37.5-37.499 37.5 -20.711 0-37.501-16.789-37.501-37.5s16.79-37.5 37.501-37.5C120.711 16.499 137.5 33.288 137.5 53.999z" data-colored="false" data-fillType="gradient" data-strokeType="none" data-fromskin="true" fill="url(#SvgjsRadialGradient2908)" opacity="1"></path></g><g id="svga-group-eyebrows-left-move" data-updown="0" data-leftright="0" data-rotate="0" transform="matrix(1,0,0,1,0,0)"><g id="svga-group-eyebrows-left-rotate" data-updown="0" data-leftright="0" data-rotate="0" transform="matrix(1,0,0,1,0,0)"><g id="svga-group-eyebrows-left" data-scaleX="1" data-scaleY="1" transform="matrix(1,0,0,1,0,0)"><path id="SvgjsPath3930" d="M52.488 73.87c7.475-9.383 20.338-7.822 30.878-6.314 2.681 0.384 5.441 0.672 8.07 1.336 1.884 0.475 3.365 2.622 1.851 4.356 -0.708 0.825-2.253 0.672-3.207 0.652C77.459 73.645 63.193 66.387 52.488 73.87z" data-colored="true" data-fillType="#000000" data-strokeType="none" fill="#2a232b" stroke-width="none" opacity="1" stroke="none"></path></g></g></g><g id="svga-group-eyebrows-right-move" data-updown="0" data-leftright="0" data-rotate="0" transform="matrix(1,0,0,1,0,0)"><g id="svga-group-eyebrows-right-rotate" data-updown="0" data-leftright="0" data-rotate="0" transform="matrix(1,0,0,1,0,0)"><g id="svga-group-eyebrows-right" data-scaleX="1" data-scaleY="1" transform="matrix(1,0,0,1,0,0)"><path id="SvgjsPath3931" d="M147.577 73.49c-2.164-1.448-4.454-2.47-7.043-2.889 -9.497-1.54-27.586 4.79-32.341 3.45 -2.912-0.822-2.323-3.739-1.035-4.458 0.775-0.433 0.99-0.422 7.909-1.612C126.824 65.961 139.988 64.355 147.577 73.49z" data-colored="true" data-fillType="#000000" data-strokeType="none" fill="#2a232b" stroke-width="none" opacity="1" stroke="none"></path></g></g></g><g id="svga-group-nose-single-move" data-updown="0" data-leftright="0" data-rotate="0" transform="matrix(1,0,0,1,0,0)"><g id="svga-group-nose-single" data-scaleX="1" data-scaleY="1" transform="matrix(1,0,0,1,0,0)"><path id="SvgjsPath3041" d="M91.115 115.499c-0.878 2.064 5.934 4.292 8.519 4.429 2.8 0.147 10.646-2.9 9.316-4.992 -1.399-2.195-6.643-0.286-8.906-0.286C97.792 114.649 92.291 112.745 91.115 115.499z" data-colored="true" data-fillType="sd1" data-strokeType="none" data-fromskin="true" fill="#e4b3ab" stroke-width="none" opacity="1" stroke="none"></path><path id="SvgjsPath3042" d="M101.857 117.058c-0.23-0.759 1.876-1.584 2.657-1.694 1.101-0.16 3.36 0.802 3.158 1.592 -0.184 0.698-2.148-0.533-2.86-0.429C104.078 116.634 102.075 117.769 101.857 117.058zM94.974 116.811c0.968 0 2.404 0.623 2.668 0.074 0.315-0.655-2.139-1.461-2.86-1.372 -0.596 0.07-2.733 1.315-2.439 1.839C92.617 117.833 93.698 116.811 94.974 116.811z" data-colored="true" data-fillType="sd3" data-strokeType="none" data-fromskin="true" fill="#c5796d" stroke-width="none" opacity="1" stroke="none"></path><path id="SvgjsPath3043" d="M100.089 111.999c0.607 0 1.742-0.74 1.792-2.23 0.201-6.008-0.956-23.833-1.792-23.77 -0.78 0.059-2.267 17.637-1.948 23.77C98.22 111.271 99.404 111.999 100.089 111.999z" data-colored="true" data-fillType="hl2" data-strokeType="none" data-fromskin="true" fill="#ffffff" stroke-width="none" opacity="0.2" stroke="none"></path></g></g><g id="svga-group-beardwrap" data-scaleX="1" data-scaleY="1" transform="matrix(1,0,0,1,0,0)"><g id="svga-group-beard-single-move" data-updown="0" data-leftright="0" data-rotate="0" transform="matrix(1,0,0,1,0,0)"><g id="svga-group-beard-single" data-scaleX="1" data-scaleY="1" transform="matrix(1,0,0,1,0,0)"><path id="SvgjsPath4000" d="M150.78 88.74c-3.07 1.75-5.3 2.95-7.16 4.25 -11.33 7.55-12.48 25.22-14.44 41.87 -5.95-10.49-5.03-12.28-12.86-13.87 -9.61-2.1-12.81-3.02-16.32 1.62 -2.72-2.76-3.71-4.23-10.28-2.8 -11.7 2.31-12.28 2.01-15.77 9.5 -0.25 0.59-2.83 4.99-3.13 5.56 -0.57-3.98 0.05-4.11-1.58-12.88 -1.72-9.07-2.45-16.22-6.94-23.31 -4.34-6.03-13.78-10.55-18.4-12.1 0 7.61 0.73 18.98 0.87 20.44 1.75 17.86 8.72 45.74 21.16 57.45 10.4 9.39 21.98 8.75 34.11 8.75 6.25 0 18.06 0.43 25.25-3.06 9.77-3.78 16.54-14.45 20.4-24.19 6.72-16.43 10.41-32.87 10.41-59.39C152.55 87.92 151.86 88.07 150.78 88.74zM103.99 148.16c0.12-0.69 0.49-1.7 0.64-1.97 1.06-2.25 5.94-8.9 6.51-9.39 -6.47 1.93-14.08 2.15-22.05 0.27 1.9 2.27 6.39 8.14 6.92 11.09 -7.06-3.07-16.31-4.46-15.35-12.04 0.51-5.54 6.87-5.79 11.06-6.06 16.78-0.32 26.91-1.16 27.63 6.06C120.26 143.68 111.18 145.1 103.99 148.16z" data-colored="true" data-fillType="tone" data-strokeType="none" fill="#6b4e40" stroke-width="none" opacity="1"></path><path id="SvgjsPath4001" d="M156.1 86.58c0 26.52-3.69 42.96-10.41 59.39 -3.86 9.74-10.63 20.41-20.4 24.19 -7.19 3.49-19 3.06-25.25 3.06 -12.13 0-23.71 0.64-34.11-8.75 -12.44-11.71-19.41-39.59-21.16-57.45 -0.14-1.47-0.87-12.83-0.87-20.44 0.99 0.33 2.21 0.81 3.54 1.4C54.06 117.85 55.74 159.26 89 171c-1-2-4-6-4-6s6 4 9 6c0-1-0.98-4.88-0.98-4.88s4.78 3.43 7.78 4.43c0-1-1-4.08-1-4.08l5.23 3.45L113 163c0 0-2.5 5.25-3.5 7.25 3.6-0.97 9.48-5.3 9.48-5.3S118 168 118 169c29.21-16.43 29.26-51.2 33.61-80.71C152.42 87.91 153.48 87.57 156.1 86.58zM89.09 137.07c0.28 0.33 0.61 0.74 0.98 1.21 6.41 4.06 13.67 3.89 19.81 0.08 0.63-0.83 1.11-1.43 1.27-1.56C104.67 138.73 97.05 138.94 89.09 137.07zM100.74 167.83c-0.4-0.75-0.96-1.72-1.12-2.56 0-0.01-0.3-1.24-0.3-1.24 -0.02-0.09-0.38-2.55-0.31-2.55 -0.05-1.35-0.24-3.13-0.34-4.14C97.9 164.14 98.98 165.77 100.74 167.83zM104.36 142.34c-0.01 0 0.01 0.1-0.03 0.27 -0.31 1.44-2.68 4.35-2.9 6.13C101.35 145.78 104.21 143.34 104.36 142.34zM125.13 138.74c1.42 3.26 0.28 5.54-1.25 8.75C125.13 142.96 125.8 141.82 125.13 138.74zM119.63 128.99c1.45 2.19 1.98 2.59 3.75 9.25C121.73 134.59 121.56 133.57 119.63 128.99zM121.13 126.24c1.98 1.63 3.34 3.11 4.75 8.5C124.09 130.74 122.9 128.39 121.13 126.24zM103.88 164.74c0.55-5.94 2.31-9.27 6.25-13.75C107.23 155.53 105.38 159.63 103.88 164.74zM110.13 162.49c2.13-3.31 4.46-8.56 8.75-9.75 -1.54 0.74-2.28 1.58-3.68 3.27 0 0-0.76 0.89-1.88 2.54C112.52 159.71 111.13 161.5 110.13 162.49zM114.38 166.74c2.42-3.78 2.26-4.91 4.75-7.25C116.81 162.7 116.96 164.13 114.38 166.74zM112.63 154.49c1.26-4.02 3.23-7.66 7.25-9.75C116.83 147.09 114.47 151.09 112.63 154.49zM102.38 157.22c-0.96-2.91-0.36-5.47 0.25-8.49C102.46 152.63 102.01 154.66 102.38 157.22zM131.88 152.24c-2.85 3.86-5.51 5.68-9 7C126.17 157.3 127.59 156.02 131.88 152.24zM136.13 140.49c-1.54 7.31-7.2 11.9-13.75 15.5 6.9-5.64 9.47-8.88 9.47-8.88C133.28 145.49 135.05 143 136.13 140.49zM130.13 146.74c-0.05-6.28 1.03-10.04 4.5-15.5C132.47 136.59 130.94 142.19 130.13 146.74zM142.38 120.99c-0.05 2.66 0.02 7.63-7 17.25 0.02-0.05 4.82-10.56 4.76-10.56C141.49 124.53 141.83 123.29 142.38 120.99zM134.63 126.24c-0.15-5.53 1.26-6.58 3.5-12.75C137 119.35 135.56 120.36 134.63 126.24zM146.63 100.99c-1.17 6.98-2.54 8.72-7.25 19C141.37 111.46 143.46 109.24 146.63 100.99zM76.12 147.49c-1.61-3.29-2.62-5.37-1.25-8.75 -0.26 1.18-0.48 1.72 0.01 4.41C74.88 143.16 76.12 147.49 76.12 147.49zM76.62 138.24c1.5-6.29 2.77-7.73 3.75-9.25C77.74 135.05 78.98 133.17 76.62 138.24zM74.12 134.74c1.15-4.74 2.51-6.57 4.75-8.5C76.81 128.67 75.73 131.28 74.12 134.74zM89.87 150.99c4.37 4.74 5.65 8.51 6.25 13.75C94.7 159.56 92.88 155.95 89.87 150.99zM81.12 152.74c1.43 0.38 2.72 1.05 4.19 2.84 0 0 1.31 1.42 3.61 5.37 0.51 0.89 0.95 1.54 0.95 1.54 -1.29-1.32-5.1-6.47-5.08-6.47C82.99 153.87 82.42 153.38 81.12 152.74zM79.87 159.49c2.72 2.57 2.46 3.8 4.75 7.25C82.12 164.22 82.09 162.58 79.87 159.49zM80.12 144.74c1.89 0.97 3.04 1.99 3.71 2.93 0 0 0.46 0.6 0.89 1.21 1.53 2.38 1.84 3.1 2.65 5.61 -0.73-1.37-1.12-2.13-3.16-5.26 -0.43-0.59-0.87-1.17-0.87-1.17C82.13 146.38 81.03 145.44 80.12 144.74zM97.37 148.74c0.67 3.47 0.41 4.42-0.25 6.5C97.51 152.79 97.48 153.09 97.37 148.74zM96.87 142.74c1 0.7 2.15 1.68 2.88 3.9 0 0 1.34 3.22 0.37 7.88C100.19 153.04 99.97 146.06 96.87 142.74zM77.12 159.24c-3.87-1.31-6.51-3.75-9-7C71.41 155.21 73.53 157.08 77.12 159.24zM77.62 155.99c-6.51-3.61-12.1-8.05-13.75-15.5 0.94 2.24 2.1 4.23 4.27 6.63C68.14 147.12 70.84 150.26 77.62 155.99zM65.37 131.24c3.01 4.73 4.56 8.58 4.5 15.5C68.98 141.75 67.37 136.19 65.37 131.24zM64.62 138.24c-3.86-5.17-6.82-10.71-7-17.25C58.87 126.52 61.02 130.04 64.62 138.24zM61.87 113.49c2.42 6.51 3.65 7.56 3.5 12.75C64.61 120.55 63 119.8 61.87 113.49zM60.62 119.99c-3.79-8.25-5.96-11.29-7.25-19C56.88 110.14 58.73 111.91 60.62 119.99z" data-colored="true" data-fillType="sd1" data-strokeType="none" fill="#5c3d2e" stroke-width="none" opacity="1"></path><path id="SvgjsPath4002" d="M150.78 88.74c-3.07 1.75-5.3 2.95-7.16 4.25 -11.33 7.55-12.48 25.22-14.44 41.87 -5.95-10.49-5.03-12.28-12.86-13.87 -9.61-2.1-12.81-3.02-16.32 1.62 -2.72-2.76-3.71-4.23-10.28-2.8 -11.7 2.31-12.28 2.01-15.77 9.5 -0.25 0.59-2.83 4.99-3.13 5.56 -0.57-3.98 0.05-4.11-1.58-12.88 -1.72-9.07-2.45-16.22-6.94-23.31 -4.34-6.03-13.78-10.55-18.4-12.1 0 7.61 0.73 18.98 0.87 20.44 1.75 17.86 8.72 45.74 21.16 57.45 10.4 9.39 21.98 8.75 34.11 8.75 6.25 0 18.06 0.43 25.25-3.06 9.77-3.78 16.54-14.45 20.4-24.19 6.72-16.43 10.41-32.87 10.41-59.39C152.55 87.92 151.86 88.07 150.78 88.74zM136.74 159.03c-4.76 7.25-15.49 12.01-19.96 12.27 -1.55 0.17-8.89 1.47-25.86 0.75 -2.92-0.02-11.3-0.88-15.65-3.16 -16.93-7.07-24.7-35.57-28.17-53.69 -1.03-4.85-2.33-17.53-2.92-28.23 6.64 2.9 14.69 7.96 18.37 14.49 3.19 6.11 3.94 13.31 5.68 20.81 2.21 9.72 1.11 6.72 2.35 13.05 0.04 0.16 0.07 0.32 0.11 0.47 9.23-14.36 4.63-12.18 19.2-15.18 4.51-1.1 7-1.32 10.11 2.4 3.87-4.58 6.28-3.27 16.14-1.2 7.81 1.73 5.93 2.91 12.33 12.65 0.25 0.38 0.76 1.19 0.84 1.34 0.57-2.28 0.85-5.97 1.5-9.47 0.19-1 3.43-16.39 4.59-19.86 3.05-9.63 7.85-12.19 15.67-17.21 1.03-0.73 1.96-1.02 4.76-2.3C154.39 110.33 150.55 139.83 136.74 159.03zM110.01 129.33c-4.89-0.08-5.82 0.4-18.27-0.03 -3.78 0.06-7.55 0.12-9.99 2.5 -2.92 2.67-4.44 10.55 5.77 14.03 3.29 1.04 8.14 2.54 8.94 2.88 0-3.24-5.72-10.27-6.63-11.3 9.19 2.3 17.44 1 20.59-0.27 -1.4 1.52-6.88 8.4-6.88 11.57 8.75-2.92 13.75-3.65 15.99-8.13C121.65 136.73 120.54 129.16 110.01 129.33zM103.99 148.16c0.12-0.69 0.49-1.7 0.64-1.97 1.06-2.25 5.94-8.9 6.51-9.39 -6.47 1.93-14.08 2.15-22.05 0.27 1.9 2.27 6.39 8.14 6.92 11.09 -7.06-3.07-16.31-4.46-15.35-12.04 0.51-5.54 6.87-5.79 11.06-6.06 16.78-0.32 26.91-1.16 27.63 6.06C120.26 143.68 111.18 145.1 103.99 148.16z" data-colored="true" data-fillType="sd3" data-strokeType="none" fill="#3d2012" stroke-width="none" opacity="1"></path></g></g></g><g id="svga-group-mustache-single-move" data-updown="0" data-leftright="0" data-rotate="0" transform="matrix(1,0,0,1,0,0)"><g id="svga-group-mustache-single" data-scaleX="1" data-scaleY="1" transform="matrix(1,0,0,1,0,0)"><path id="SvgjsPath3975" d="M100,18.13L100,18.13L100,18.13L100,18.13z" data-colored="true" data-fillType="tone" data-strokeType="none" fill="#2a232b" stroke-width="none" opacity="1"></path></g></g><g id="svga-group-hair-front" data-scaleX="1" data-scaleY="1" transform="matrix(1,0,0,1,0,0)"><path id="SvgjsPath3969" d="M152.176 96.021c-4.33-11.451-2.396-20.042-3.227-37.21 -1.283-26.428-7.483-23.179-21.749-24.214C105.156 33 97.497 22.794 81.063 22.794c-8.887 0-19.24 4.048-27.173 11.001 -6.378 43.485 2.638 39.87-6.744 61.845 -5.953-6.247-6.721-15.865-11.134-28.495 -3.519-10.451-2.658-11.011-6.527-16.049 2.484 0.449 2.734 0.429 3.842 0.429 -1.97-4.306-4.479-11.951-5.429-15.273 2.329-1.116 4.839-3.909 6.47-5.919 -0.931-2.128-1.646-4.554-2.079-6.625 0.077-0.026 0.438-0.16 0.438-0.16l0.004-0.017c5.681-2.417 6.84-15.944 10.785-19.389 1.941-1.814 3.806-2.531 5.534-3.446 0.204-1.895 0.295-2.277 0.575-3.63 9.402-2.521 12.254-1.199 25.53-4.893 4.564-1.27 7.709-2.153 17.317-1.75 3.525 1.779 16.06 10.479 25.484 1.602 7.254 4.527 13.574 5.105 22.624 10.252 15.179 8.89 17.244 15.147 16.352 29.56 10.493 13.965 8.167 30.567 3.577 47.23C157.639 89.383 154.886 92.761 152.176 96.021z" data-colored="true" data-fillType="tone" data-strokeType="none" fill="#6b4e40" stroke-width="none" opacity="1"></path><path id="SvgjsPath3970" d="M152 82c-1-8 3-15 4-22 -1 2-3 3-3 5 0-7 3-13 2-20 -1 2-2 3-4 4 3-7 0-15-5-21 1 3 2 5 2 8 -6-9-20-10-30-15 2 3 6 5 9 7 -14-5-27-11-40-17 2.206 2.206 3.875 6.024 6.589 7.499 1.143 0.163 0.978 0.531 0 0C81.581 16.79 68.958 15.479 58 10c0 4 3 7 6 9 -3 0-6-3-8-2 -3 2 3 4 2 6 -3 2-6-1-9-1 2 3 0 8 2 11 -2-1-4-3-4-2 -1 4-3 5-3 8 0 5 3 10 3 15 0-1.608-1.938-1.279-2.697-2.127 5.009 13.975 4.782 28.692 2.606 43.497 0.082 0.089 0.154 0.184 0.237 0.271 9.382-21.975 0.366-18.36 6.744-61.845 7.933-6.953 18.286-11.001 27.173-11.001 16.435 0 24.094 10.207 46.138 11.802 14.266 1.036 20.466-2.214 21.749 24.214 0.83 17.168-1.104 25.759 3.227 37.21 0.005-0.005 0.009-0.011 0.014-0.016C152.841 88.595 155 81.796 155 75 154 77 153 79 152 82z" data-colored="true" data-fillType="sd2" data-strokeType="none" fill="#4c2d1e" stroke-width="none" opacity="1"></path><path id="SvgjsPath3971" d="M159.263 71.488C158.954 72.145 157 72.343 157 73c0-3 3.516-5.243 2.924-10.264 0 0.396-3.158 2.95-3.475 3.346 -0.206 1 4.288-10.681 4.288-14.542C159.263 53.999 158 54 158 56c0-4-0.006-9.854-0.006-13.854 0 2-1.994 4.949-1.994 6.949 0.933-7.464-3.404-16.095-4.28-23.501 -0.511 1.795-1.479 3.889-0.72 5.406 -3-4-2-11-7-14 -1 2-1 4-2 6 -3-4-7-7-9-11 0 2 0 3 0 5 -5-4-12-6-15-12 0 2 0 5 0 7 -4-1-10.495-4.596-12.495-7.596C105.505 7.404 109 12 109 15c-8-4-14-10-22-14 0 2 2 4 1 6 -4-2-11.771-2-13.771-6 0 3 3.11 6 3.11 9 -9-1-11.009-3.822-19.242-7.596C57.097 4.404 56 7 55 9c-2-2-3-4-6-4 0 3 3 7 1 10 -1 1-5-3-5-2 -2 4 0 10-2 14 0 1-3-2-5-1 3.872 5.807 1.202 12.548 3.745 18.416C41.843 44.598 41.93 44.79 42 45c-0.096-0.193-0.17-0.389-0.255-0.584C40.452 41.988 36.93 41.79 36 39c0 7.303 4.157 13.774 5.645 20.932C42.15 60.233 42.404 60.788 42 62c-0.087-0.697-0.214-1.385-0.355-2.068C40.897 59.486 39.596 59.596 39 59c4.728 9.455 6.191 25.673 7.909 36.369 3.545-15.374 1.709-31.456-2.606-43.497C44.118 51.666 44 51.392 44 51c0.109 0.29 0.198 0.582 0.303 0.873C45.063 52.721 47 52.392 47 54c0-5-3-10-3-15 0-3 2-4 3-8 0-1 2 1 4 2 -2-3 0-8-2-11 3 0 6 3 9 1 1-2-5-4-2-6 2-1 5 2 8 2 -3-2-6-5-6-9 10.958 5.479 23.581 6.79 35.589 8.499C90.875 17.024 89.206 13.206 87 11c13 6 26 12 40 17 -3-2-7-4-9-7 10 5 24 6 30 15 0-3-1-5-2-8 5 6 8 14 5 21 2-1 3-2 4-4 1 7-2 13-2 20 0-2 2-3 3-5 -1 7-5 14-4 22 1-3 2-5 3-7 0 6.796-2.159 13.595-2.811 21.004 0.814-0.979 1.633-1.975 2.457-3.163C154.545 85.429 157.479 79.338 159.263 71.488z" data-colored="true" data-fillType="sd1" data-strokeType="none" fill="#5c3d2e" stroke-width="none" opacity="1"></path><path id="SvgjsPath3972" d="M93.119 18.235c-1.128 0.089-2.468 0.279-4.94-0.096 -6.698-0.927-28.617-1.793-29.81-8.654 1.055 3.353 7.405 4.299 12.204 5.198 0 0 3.382 0.651 8.723 1.251C89.291 17.101 87.179 17.888 93.119 18.235zM115.897 23.746C92 13.389 93.7 14.531 88.119 10.985c7.333 6.156 9.839 6.172 22.619 12.018 5.921 2.667 7.078 2.561 15.131 4.482C120.224 25.241 119.559 25.287 115.897 23.746zM118.619 20.735c9.914 8.153 22.008 6.125 29.75 15C142.164 25.918 128.518 26.908 118.619 20.735zM59.905 17.331c-2.668-0.805-3.997-0.43-5.286 0.404 4.225-1.989 8.651 2.923 13.75 1.5C66.006 19.523 59.905 17.53 59.905 17.331zM57.051 23.932c-2.328-0.734-5.203-1.979-7.151-1.927 -1.03 0.024-1.281 0.48-1.281 0.48 0.975-1.139 5.609 1.099 8.396 1.626 0.766 0.16 1.354 0.123 1.354 0.123S57.783 24.176 57.051 23.932zM45.652 35.678c0.687-1.892 1.461-3.751 1.256-5.482 -0.104-0.627-0.309-0.955-0.289-0.96 0.464 1.973-0.313 3.175-1.68 6.136 -3.015 6.453 0.924 11.484 2.43 18.364C46.86 45.866 43.166 42.389 45.652 35.678zM154.369 45.985c0.32 2.168 0.225 3.63-0.154 7.075 0 0-0.695 5.779-2.096 11.425C154.198 59.638 155.94 51.389 154.369 45.985zM155.869 61.485c-3.387 9.387-3.936 12.846-4.5 20.25C155.099 64.497 153.284 73.154 155.869 61.485z" data-colored="true" data-fillType="tone" data-strokeType="none" fill="#6b4e40" stroke-width="none" opacity="1"></path><path id="SvgjsPath3973" d="M114.869-1.765c-6.126 0.965-12.52 1.734-24-5.25C101.949-1.999 107.334-1.517 114.869-1.765zM128.401 0.19c-6.076-2.194-6.475-4.768-11.032-6.205 4.159 1.884 4.127 4.303 9.559 6.761 2.642 1.249 11.822 3.782 17.441 7.439C139.405 3.794 136.066 3.059 128.401 0.19zM60.619-2.015c11.593 0.241 13.441-2.719 26.75-4.25C75.403-6.414 74.136-3.561 60.619-2.015zM90.869-1.765c4.669 0.559 11.405 4.746 13.5 9.5C102.84 2.405 96.201-1.735 90.869-1.765zM116.869-0.265c4.652 2.475 6.308 7.699 12 8.75C123.284 6.637 122.178 1.803 116.869-0.265zM108.869 0.735c1.193 2.033 2.93 4.107 7.5 7C111.036 3.353 110.121 2.431 108.869 0.735zM132.119 5.485c5.115 0.627 10.451 5.663 11 11.25C143.375 11.229 138.428 5.581 132.119 5.485zM149.458 14.007c-2.307-2.946-4.339-3.642-5.339-4.022 1.428 0.741 2.997 1.725 4.866 4.386 0 0 3.437 4.57 4.884 9.614C152.871 17.907 149.458 14.007 149.458 14.007zM54.369-0.265c0.185-0.391 5.324 1.866 5.73 2.03 1.229 0.479 7.383 2.967 9.52 3.22C68.618 4.717 54.423-1.414 54.369-0.265zM45.869 5.985c0.682 0.896 1.458 2.263 2.01 3.245 0 0 0.296 0.523 0.571 1.059 0.27 0.537 0.51 1.086 0.51 1.086C49.634 12.912 49.955 13.861 50 15 50.252 12.019 47.702 7.872 45.869 5.985zM42.869 8.985c-2.517 6.149-2.489 9.708 0 16C41.306 18.681 40.986 15.697 42.869 8.985z" data-colored="true" data-fillType="hl1" data-strokeType="none" fill="#7a6155" stroke-width="none" opacity="1"></path><path id="SvgjsPath3974" d="M157.239 31.745c0.228-3.5 0.323-5.684 0.02-9.14 -1.138-10.129-7.217-15.136-16.529-20.59 -9.158-5.208-15.513-5.751-22.811-10.37 -9.334 9.042-21.935 0.184-25.37-1.52 -16.776-0.716-14.191 2.518-32.75 4.78 -6.844 0.773-9.67 1.72-9.67 1.72 -0.26 0.07-0.52 0.13-0.76 0.2 -0.2 1-0.381 1.616-0.6 3.68 -1.516 0.801-3.484 1.572-5.45 3.41 -4.048 3.536-5.212 17.195-10.83 19.39v0.01c-0.118 0.043-0.428 0.163-0.55 0.18 0.419 2.096 1.188 4.75 2.08 6.79 -1.594 1.959-4.17 4.807-6.48 5.8 0.546 1.98 3.313 10.751 5.32 15.14 -1.1 0-2.003-0.194-4.09-0.56 4.388 5.578 3.281 5.653 6.96 16.58 4.481 12.826 5.208 22.595 11.49 28.9 5.633-10.646 5.146-15.583 5.19-19.41 0.123-5.265-2.433-18.462 1.935-42.798 9.262-8.105 22.378-12.754 34.815-9.932 13.001 2.94 19.525 9.551 38.02 10.89 14.399 1.046 20.201-2.213 21.471 23.93 0.841 17.373-1.163 26.023 3.43 37.78 2.669-3.22 5.645-6.408 8.72-17.46C165.299 62.807 167.816 45.939 157.239 31.745zM161.02 70.726c-3.468 16.597-5.491 19.609-9.061 24.96 -2.882-8.88-2.093-17.47-1.8-26.59 1.486-39.246-8.424-34.825-22.86-35.92 -17.688-1.192-24.622-7.896-37.76-10.54 -11.972-2.45-25.25 0.755-36.35 11.16 -6.045 27.128 0.578 41.608-4.78 55.37 -1.162 2.943-0.429 3.694-1.28 5.84 -4.636-6.978-5.874-16.832-7.41-21.79 -4.784-12.176-4.632-16.171-9.84-21.97 1.271 0.277 2.91 0.457 4.21 0.24 -0.01-0.01-0.01-0.01-0.01-0.02 -0.332-1.001-4.524-12.47-5.75-15.33 2.387-1.152 4.729-3.746 6.35-5.83 -1.292-4.088 0.314 1.902-2.1-6.66 7.366-2.215 6.6-16.125 14.11-21.21 0.997-0.665 1.88-1.213 2.86-1.83 0.221-1.879 0.071-0.771 0.52-3.63 8.803-1.813 12.4-0.024 25.18-4.05 9.681-2.356 16.636-2.269 17.64-2.16 6.167 3.862 9.656 6.038 16.91 5.53 3.323-0.272 5.966-1.878 8.28-4.24 4.01 3.008 8.485 4.831 13.99 7.35 22.244 10.181 24.229 18.459 24.229 32.18 1.398 1.975 2.938 5.099 3.7 7.19C164.593 50.117 163.096 61.037 161.02 70.726z" data-colored="true" data-fillType="sd3" data-strokeType="none" fill="#3d2012" stroke-width="none" opacity="1"></path></g><g id="svga-group-glasses-single-move" data-updown="0" data-leftright="0" data-rotate="0" transform="matrix(1,0,0,1,0,0)"><g id="svga-group-glasses-single" data-scaleX="1" data-scaleY="1" transform="matrix(1,0,0,1,0,0)"><path id="SvgjsPath3876" d="M143.62 100.1c-2.36 2.2-6.23 3.04-13.56 3.04 -9.78 0-16.18-1.09-20.41-9.51 -3.29-6.54-4.62-13.56-3.02-15.98 2.21-3.34 8.57-5.61 15.67-6.28C134.63 77.23 143.29 88.98 143.62 100.1zM72.01 71.17c-7.64 0.21-15.09 2.35-18.27 7.05 -2.18 3.21-1.69 12.55-0.22 16.94 2 5.99 5.07 7.98 16.42 7.98 9.78 0 16.18-1.09 20.41-9.51 0.42-0.84 0.81-1.69 1.17-2.54C88.29 82.95 81.16 75.43 72.01 71.17z" data-colored="false" data-fillType="#ffffff" data-strokeType="none" fill="#ffffff" stroke-width="none" opacity="0.2"></path><path id="SvgjsPath3877" d="M146.48 95.17c-0.71 2.12-1.56 3.73-2.86 4.94 -0.33-11.12-8.99-22.87-21.33-28.74 9.37-0.89 19.99 0.99 23.97 6.86C148.44 81.44 147.95 90.77 146.48 95.17zM93.38 77.65c-2.79-4.23-12.22-6.73-21.37-6.47 9.16 4.25 16.28 11.77 19.52 19.92C93.94 85.36 94.77 79.76 93.38 77.65z" data-colored="false" data-fillType="#ffffff" data-strokeType="none" fill="#ffffff" stroke-width="none" opacity="0.4"></path><path id="SvgjsPath3878" d="M151.79 73.61c-10.18-5.46-36.14-7.01-45.5 0.15 -0.8 0.47-4.23-0.53-6.29-0.53 -1.95 0-5.42 1.05-6.29 0.53 -9.36-7.16-35.32-5.61-45.5-0.15 -1.46 0.79-1.62 4.51-0.35 5.08 0.91 0.41 1.51 0.98 1.46 1.98C49 86.29 50.55 93.59 51.23 95.6c0.87 2.59 2.44 7.41 9.29 8.6 5.83 1.01 16.43 1.48 21.94-0.17 9.99-2.98 14.24-18.04 14.42-23.17l0.01 0.02c0.4-1.8 5.82-1.8 6.23 0l0.01-0.02c0.17 5.13 4.43 20.19 14.42 23.17 5.51 1.65 16.11 1.18 21.94 0.17 6.85-1.19 8.42-6.01 9.29-8.6 0.68-2.02 2.23-9.31 1.92-14.93 -0.05-1 0.56-1.57 1.46-1.98C153.41 78.12 153.25 74.4 151.79 73.61zM81.41 101.36c-5.06 1.51-14.32 1.61-19.71 0.67 -4.54-0.79-6.44-3.26-7.7-7.03 -1.48-4.4-1.87-13.51 0.16-16.5 6.76-9.98 33.87-8.05 38.8-0.58C95.16 81.27 90.89 98.53 81.41 101.36zM146 95.01c-1.26 3.77-3.17 6.24-7.7 7.03 -5.39 0.94-14.65 0.84-19.71-0.67 -9.48-2.83-13.75-20.09-11.55-23.44 4.93-7.47 32.04-9.4 38.8 0.58C147.87 81.49 147.48 90.61 146 95.01z" data-colored="true" data-fillType="tone" data-strokeType="none" fill="#26120b" stroke-width="none" opacity="1"></path><path id="SvgjsPath3879" d="M118.58 101.32c2.79 0.83 6.86 1.24 10.85 1.27 -12.54 1.22-15.39-3.4-17.12-5.16 -3.52-3.59-5.69-8.95-5.85-16.65C106.49 86.86 110.76 98.99 118.58 101.32zM93.69 73.72c-9.36-7.16-35.32-5.62-45.5-0.15C71.43 67.05 84.93 70.42 93.69 73.72zM61.68 102c-4.54-0.79-6.44-3.26-7.7-7.03 -1.32-3.93-1.77-11.62-0.4-15.35 -1.83 4.22-1.12 12.39 0.26 16.5 1.6 4.8 4.54 7.18 17.34 6.46C67.71 102.65 64.25 102.44 61.68 102zM152.97 76.3c-0.04-1.13-0.45-2.32-1.2-2.73 -9.98-5.36-35.14-6.94-44.93-0.25C120 68.05 138.97 67.31 152.97 76.3z" data-colored="true" data-fillType="hl1" data-strokeType="none" fill="#351d15" stroke-width="none" opacity="1"></path></g></g></g></g></g></g></svg>